#N canvas 954 52 967 1005 10;
#X obj 9 15 aubio;
#X obj 11 280 aubioquiet~;
#X obj 11 302 bng 15 250 50 0 empty empty empty 17 7 0 10 -262144 -1
-1;
#X obj 10 322 bng 15 250 50 0 empty empty empty 17 7 0 10 -262144 -1
-1;
#X obj 64 1112 dac~;
#X obj 59 1229 *~ 0.1;
#X obj 55 1271 dac~;
#X floatatom 124 1188 5 0 0 0 - - -, f 5;
#X obj 124 1223 / 100;
#X obj 53 1156 osc~ 440;
#X text 25 302 silence;
#X text 28 323 signal;
#X obj 89 280 aubioquiet~;
#X obj 89 302 bng 15 250 50 0 empty empty empty 17 7 0 10 -262144 -1
-1;
#X obj 88 321 bng 15 250 50 0 empty empty empty 17 7 0 10 -262144 -1
-1;
#X text 103 302 silence;
#X text 106 323 signal;
#X obj 165 281 aubioquiet~;
#X obj 165 303 bng 15 250 50 0 empty empty empty 17 7 0 10 -262144
-1 -1;
#X obj 164 322 bng 15 250 50 0 empty empty empty 17 7 0 10 -262144
-1 -1;
#X text 179 303 silence;
#X text 182 324 signal;
#X obj 243 281 aubioquiet~;
#X obj 243 303 bng 15 250 50 0 empty empty empty 17 7 0 10 -262144
-1 -1;
#X obj 242 322 bng 15 250 50 0 empty empty empty 17 7 0 10 -262144
-1 -1;
#X text 257 303 silence;
#X text 260 324 signal;
#X obj 320 282 aubioquiet~;
#X obj 320 304 bng 15 250 50 0 empty empty empty 17 7 0 10 -262144
-1 -1;
#X obj 319 323 bng 15 250 50 0 empty empty empty 17 7 0 10 -262144
-1 -1;
#X text 334 304 silence;
#X text 337 325 signal;
#X obj 398 282 aubioquiet~;
#X obj 398 304 bng 15 250 50 0 empty empty empty 17 7 0 10 -262144
-1 -1;
#X obj 397 323 bng 15 250 50 0 empty empty empty 17 7 0 10 -262144
-1 -1;
#X text 412 304 silence;
#X text 415 325 signal;
#X obj 474 283 aubioquiet~;
#X obj 474 305 bng 15 250 50 0 empty empty empty 17 7 0 10 -262144
-1 -1;
#X obj 473 324 bng 15 250 50 0 empty empty empty 17 7 0 10 -262144
-1 -1;
#X text 488 305 silence;
#X text 491 326 signal;
#X obj 552 283 aubioquiet~;
#X obj 552 305 bng 15 250 50 0 empty empty empty 17 7 0 10 -262144
-1 -1;
#X obj 551 324 bng 15 250 50 0 empty empty empty 17 7 0 10 -262144
-1 -1;
#X text 566 305 silence;
#X text 569 326 signal;
#X obj 630 282 aubioquiet~;
#X obj 630 304 bng 15 250 50 0 empty empty empty 17 7 0 10 -262144
-1 -1;
#X obj 629 323 bng 15 250 50 0 empty empty empty 17 7 0 10 -262144
-1 -1;
#X text 644 304 silence;
#X text 647 325 signal;
#X obj 708 282 aubioquiet~;
#X obj 708 304 bng 15 250 50 0 empty empty empty 17 7 0 10 -262144
-1 -1;
#X obj 707 323 bng 15 250 50 0 empty empty empty 17 7 0 10 -262144
-1 -1;
#X text 722 304 silence;
#X text 725 325 signal;
#X obj 784 283 aubioquiet~;
#X obj 784 305 bng 15 250 50 0 empty empty empty 17 7 0 10 -262144
-1 -1;
#X obj 783 324 bng 15 250 50 0 empty empty empty 17 7 0 10 -262144
-1 -1;
#X text 798 305 silence;
#X text 801 326 signal;
#X obj 862 283 aubioquiet~;
#X obj 862 305 bng 15 250 50 0 empty empty empty 17 7 0 10 -262144
-1 -1;
#X obj 861 324 bng 15 250 50 0 empty empty empty 17 7 0 10 -262144
-1 -1;
#X text 876 305 silence;
#X text 879 326 signal;
#N canvas 84 89 1484 949 amps 1;
#X msg 56 40 \; amplitudes 0 0.0174524 0.0348995 0.052336 0.0697565
0.0871557 0.104528 0.121869 0.139173 0.156434 0.173648 0.190809 0.207912
0.224951 0.241922 0.258819 0.275637 0.292372 0.309017 0.325568 0.34202
0.358368 0.374607 0.390731 0.406737 0.422618 0.438371 0.45399 0.469472
0.48481 0.5 0.515038 0.529919 0.544639 0.559193 0.573576 0.587785 0.601815
0.615662 0.62932 0.642788 0.656059 0.669131 0.681998 0.694658 0.707107
0.71934 0.731354 0.743145 0.75471 0.766044 0.777146 0.788011 0.798635
0.809017 0.819152 0.829038 0.838671 0.848048 0.857167 0.866025 0.87462
0.882948 0.891007 0.898794 0.906308 0.913545 0.920505 0.927184 0.93358
0.939693 0.945519 0.951057 0.956305 0.961262 0.965926 0.970296 0.97437
0.978148 0.981627 0.984808 0.987688 0.990268 0.992546 0.994522 0.996195
0.997564 0.99863 0.999391 0.999848 1 0.999848 0.999391 0.99863 0.997564
0.996195 0.994522 0.992546 0.990268 0.987688 0.984808 0.981627 0.978148
0.97437 0.970296 0.965926 0.961262 0.956305 0.951057 0.945519 0.939693
0.93358 0.927184 0.920505 0.913545 0.906308 0.898794 0.891007 0.882948
0.87462 0.866025 0.857167 0.848048 0.838671 0.829038 0.819152 0.809017
0.798635 0.788011 0.777146 0.766044 0.75471 0.743145 0.731354 0.71934
0.707107 0.694658 0.681998 0.669131 0.656059 0.642788 0.62932 0.615662
0.601815 0.587785 0.573576 0.559193 0.544639 0.529919 0.515038 0.5
0.48481 0.469472 0.45399 0.438371 0.422618 0.406737 0.390731 0.374607
0.358368 0.34202 0.325568 0.309017 0.292372 0.275637 0.258819 0.241922
0.224951 0.207912 0.190809 0.173648 0.156434 0.139173 0.121869 0.104528
0.0871557 0.0697565 0.052336 0.0348995 0.0174524 1.22465e-16 -0.0174524
-0.0348995 -0.052336 -0.0697565 -0.0871557 -0.104528 -0.121869 -0.139173
-0.156434 -0.173648 -0.190809 -0.207912 -0.224951 -0.241922 -0.258819
-0.275637 -0.292372 -0.309017 -0.325568 -0.34202 -0.358368 -0.374607
-0.390731 -0.406737 -0.422618 -0.438371 -0.45399 -0.469472 -0.48481
-0.5 -0.515038 -0.529919 -0.544639 -0.559193 -0.573576 -0.587785 -0.601815
-0.615662 -0.62932 -0.642788 -0.656059 -0.669131 -0.681998 -0.694658
-0.707107 -0.71934 -0.731354 -0.743145 -0.75471 -0.766044 -0.777146
-0.788011 -0.798635 -0.809017 -0.819152 -0.829038 -0.838671 -0.848048
-0.857167 -0.866025 -0.87462 -0.882948 -0.891007 -0.898794 -0.906308
-0.913545 -0.920505 -0.927184 -0.93358 -0.939693 -0.945519 -0.951057
-0.956305 -0.961262 -0.965926 -0.970296 -0.97437 -0.978148 -0.981627
-0.984808 -0.987688 -0.990268 -0.992546 -0.994522 -0.996195 -0.997564
-0.99863 -0.999391 -0.999848 -1 -0.999848 -0.999391 -0.99863 -0.997564
-0.996195 -0.994522 -0.992546 -0.990268 -0.987688 -0.984808 -0.981627
-0.978148 -0.97437 -0.970296 -0.965926 -0.961262 -0.956305 -0.951057
-0.945519 -0.939693 -0.93358 -0.927184 -0.920505 -0.913545 -0.906308
-0.898794 -0.891007 -0.882948 -0.87462 -0.866025 -0.857167 -0.848048
-0.838671 -0.829038 -0.819152 -0.809017 -0.798635 -0.788011 -0.777146
-0.766044 -0.75471 -0.743145 -0.731354 -0.71934 -0.707107 -0.694658
-0.681998 -0.669131 -0.656059 -0.642788 -0.62932 -0.615662 -0.601815
-0.587785 -0.573576 -0.559193 -0.544639 -0.529919 -0.515038 -0.5 -0.48481
-0.469472 -0.45399 -0.438371 -0.422618 -0.406737 -0.390731 -0.374607
-0.358368 -0.34202 -0.325568 -0.309017 -0.292372 -0.275637 -0.258819
-0.241922 -0.224951 -0.207912 -0.190809 -0.173648 -0.156434 -0.139173
-0.121869 -0.104528 -0.0871557 -0.0697565 -0.052336 -0.0348995 -0.0174524
-2.44929e-16;
#N canvas 0 0 450 300 (subpatch) 0;
#X array amplitudes 360 float 3 black black;
#A 0 0.0174524 0.0348995 0.052336 0.0697565 0.0871557 0.104528 0.121869
0.139173 0.156434 0.173648 0.190809 0.207912 0.224951 0.241922 0.258819
0.275637 0.292372 0.309017 0.325568 0.34202 0.358368 0.374607 0.390731
0.406737 0.422618 0.438371 0.45399 0.469472 0.48481 0.5 0.515038 0.529919
0.544639 0.559193 0.573576 0.587785 0.601815 0.615662 0.62932 0.642788
0.656059 0.669131 0.681998 0.694658 0.707107 0.71934 0.731354 0.743145
0.75471 0.766044 0.777146 0.788011 0.798635 0.809017 0.819152 0.829038
0.838671 0.848048 0.857167 0.866025 0.87462 0.882948 0.891007 0.898794
0.906308 0.913545 0.920505 0.927184 0.93358 0.939693 0.945519 0.951057
0.956305 0.961262 0.965926 0.970296 0.97437 0.978148 0.981627 0.984808
0.987688 0.990268 0.992546 0.994522 0.996195 0.997564 0.99863 0.999391
0.999848 1 0.999848 0.999391 0.99863 0.997564 0.996195 0.994522 0.992546
0.990268 0.987688 0.984808 0.981627 0.978148 0.97437 0.970296 0.965926
0.961262 0.956305 0.951057 0.945519 0.939693 0.93358 0.927184 0.920505
0.913545 0.906308 0.898794 0.891007 0.882948 0.87462 0.866025 0.857167
0.848048 0.838671 0.829038 0.819152 0.809017 0.798635 0.788011 0.777146
0.766044 0.75471 0.743145 0.731354 0.71934 0.707107 0.694658 0.681998
0.669131 0.656059 0.642788 0.62932 0.615662 0.601815 0.587785 0.573576
0.559193 0.544639 0.529919 0.515038 0.5 0.48481 0.469472 0.45399 0.438371
0.422618 0.406737 0.390731 0.374607 0.358368 0.34202 0.325568 0.309017
0.292372 0.275637 0.258819 0.241922 0.224951 0.207912 0.190809 0.173648
0.156434 0.139173 0.121869 0.104528 0.0871557 0.0697565 0.052336 0.0348995
0.0174524 1.22465e-16 -0.0174524 -0.0348995 -0.052336 -0.0697565 -0.0871557
-0.104528 -0.121869 -0.139173 -0.156434 -0.173648 -0.190809 -0.207912
-0.224951 -0.241922 -0.258819 -0.275637 -0.292372 -0.309017 -0.325568
-0.34202 -0.358368 -0.374607 -0.390731 -0.406737 -0.422618 -0.438371
-0.45399 -0.469472 -0.48481 -0.5 -0.515038 -0.529919 -0.544639 -0.559193
-0.573576 -0.587785 -0.601815 -0.615662 -0.62932 -0.642788 -0.656059
-0.669131 -0.681998 -0.694658 -0.707107 -0.71934 -0.731354 -0.743145
-0.75471 -0.766044 -0.777146 -0.788011 -0.798635 -0.809017 -0.819152
-0.829038 -0.838671 -0.848048 -0.857167 -0.866025 -0.87462 -0.882948
-0.891007 -0.898794 -0.906308 -0.913545 -0.920505 -0.927184 -0.93358
-0.939693 -0.945519 -0.951057 -0.956305 -0.961262 -0.965926 -0.970296
-0.97437 -0.978148 -0.981627 -0.984808 -0.987688 -0.990268 -0.992546
-0.994522 -0.996195 -0.997564 -0.99863 -0.999391 -0.999848 -1 -0.999848
-0.999391 -0.99863 -0.997564 -0.996195 -0.994522 -0.992546 -0.990268
-0.987688 -0.984808 -0.981627 -0.978148 -0.97437 -0.970296 -0.965926
-0.961262 -0.956305 -0.951057 -0.945519 -0.939693 -0.93358 -0.927184
-0.920505 -0.913545 -0.906308 -0.898794 -0.891007 -0.882948 -0.87462
-0.866025 -0.857167 -0.848048 -0.838671 -0.829038 -0.819152 -0.809017
-0.798635 -0.788011 -0.777146 -0.766044 -0.75471 -0.743145 -0.731354
-0.71934 -0.707107 -0.694658 -0.681998 -0.669131 -0.656059 -0.642788
-0.62932 -0.615662 -0.601815 -0.587785 -0.573576 -0.559193 -0.544639
-0.529919 -0.515038 -0.5 -0.48481 -0.469472 -0.45399 -0.438371 -0.422618
-0.406737 -0.390731 -0.374607 -0.358368 -0.34202 -0.325568 -0.309017
-0.292372 -0.275637 -0.258819 -0.241922 -0.224951 -0.207912 -0.190809
-0.173648 -0.156434 -0.139173 -0.121869 -0.104528 -0.0871557 -0.0697565
-0.052336 -0.0348995 -0.0174524 -2.44929e-16;
#X coords 0 1 360 -1 200 140 1;
#X restore 471 45 graph;
#X obj 488 362 tabread amplitudes;
#X floatatom 488 384 5 0 0 0 - - -, f 5;
#X obj 848 156 int;
#X obj 883 155 + 1;
#X floatatom 848 180 5 0 0 0 - - -, f 5;
#X obj 487 293 % 360;
#X floatatom 488 321 5 0 0 0 - - -, f 5;
#X floatatom 540 297 5 0 0 0 - - -, f 5;
#X obj 627 272 +;
#X floatatom 626 299 5 0 0 0 - - -, f 5;
#X floatatom 626 299 5 0 0 0 - - -, f 5;
#X floatatom 695 299 5 0 0 0 - - -, f 5;
#X floatatom 772 301 5 0 0 0 - - -, f 5;
#X floatatom 849 299 5 0 0 0 - - -, f 5;
#X floatatom 938 305 5 0 0 0 - - -, f 5;
#X floatatom 1012 298 5 0 0 0 - - -, f 5;
#X floatatom 1084 299 5 0 0 0 - - -, f 5;
#X floatatom 1164 298 5 0 0 0 - - -, f 5;
#X floatatom 1248 300 5 0 0 0 - - -, f 5;
#X floatatom 1318 302 5 0 0 0 - - -, f 5;
#X obj 848 102 loadbang;
#X msg 796 116 0;
#X obj 541 270 + 8;
#X obj 627 271 + 15;
#X obj 696 272 + 23;
#X obj 773 274 + 30;
#X obj 850 272 + 38;
#X obj 938 276 + 45;
#X obj 1013 271 + 52;
#X obj 1085 272 + 60;
#X obj 1165 271 + 68;
#X obj 1249 273 + 75;
#X obj 1319 275 + 82;
#X obj 540 318 % 360;
#X obj 626 320 % 360;
#X obj 695 320 % 360;
#X obj 772 322 % 360;
#X obj 850 319 % 360;
#X obj 938 326 % 360;
#X obj 1012 319 % 360;
#X obj 1084 319 % 360;
#X obj 1165 318 % 360;
#X obj 1248 321 % 360;
#X obj 1318 323 % 360;
#X floatatom 540 340 5 0 0 0 - - -, f 5;
#X floatatom 626 342 5 0 0 0 - - -, f 5;
#X floatatom 695 342 5 0 0 0 - - -, f 5;
#X floatatom 772 344 5 0 0 0 - - -, f 5;
#X floatatom 850 341 5 0 0 0 - - -, f 5;
#X floatatom 938 348 5 0 0 0 - - -, f 5;
#X floatatom 1012 341 5 0 0 0 - - -, f 5;
#X floatatom 1084 341 5 0 0 0 - - -, f 5;
#X floatatom 1165 340 5 0 0 0 - - -, f 5;
#X floatatom 1248 343 5 0 0 0 - - -, f 5;
#X floatatom 1318 345 5 0 0 0 - - -, f 5;
#X obj 540 386 tabread amplitudes;
#X floatatom 540 408 5 0 0 0 - - -, f 5;
#X obj 630 406 tabread amplitudes;
#X floatatom 630 428 5 0 0 0 - - -, f 5;
#X obj 695 364 tabread amplitudes;
#X floatatom 695 386 5 0 0 0 - - -, f 5;
#X obj 775 384 tabread amplitudes;
#X floatatom 775 406 5 0 0 0 - - -, f 5;
#X obj 849 406 tabread amplitudes;
#X floatatom 849 428 5 0 0 0 - - -, f 5;
#X obj 938 366 tabread amplitudes;
#X floatatom 938 388 5 0 0 0 - - -, f 5;
#X obj 1011 386 tabread amplitudes;
#X floatatom 1011 408 5 0 0 0 - - -, f 5;
#X obj 1082 407 tabread amplitudes;
#X floatatom 1082 429 5 0 0 0 - - -, f 5;
#X obj 1165 360 tabread amplitudes;
#X floatatom 1165 382 5 0 0 0 - - -, f 5;
#X obj 1250 381 tabread amplitudes;
#X floatatom 1250 403 5 0 0 0 - - -, f 5;
#X obj 1322 401 tabread amplitudes;
#X floatatom 1322 423 5 0 0 0 - - -, f 5;
#X obj 488 606 vsl 15 128 0.01 1 1 0 empty empty empty 1 -1 0 10 -262144
-1 -1 1266 1;
#X obj 538 606 vsl 15 128 0.01 1 1 0 empty empty empty 1 -1 0 10 -262144
-1 -1 4441 1;
#X obj 628 606 vsl 15 128 0.01 1 1 0 empty empty empty 1 -1 0 10 -262144
-1 -1 6214 1;
#X obj 698 606 vsl 15 128 0.01 1 1 0 empty empty empty 1 -1 0 10 -262144
-1 -1 7702 1;
#X obj 773 606 vsl 15 128 0.01 1 1 0 empty empty empty 1 -1 0 10 -262144
-1 -1 8721 1;
#X obj 849 606 vsl 15 128 0.01 1 1 0 empty empty empty 1 -1 0 10 -262144
-1 -1 9672 1;
#X obj 939 606 vsl 15 128 0.01 1 1 0 empty empty empty 1 -1 0 10 -262144
-1 -1 10368 1;
#X obj 1009 606 vsl 15 128 0.01 1 1 0 empty empty empty 1 -1 0 10 -262144
-1 -1 10968 1;
#X obj 1082 606 vsl 15 128 0.01 1 1 0 empty empty empty 1 -1 0 10 -262144
-1 -1 11559 1;
#X obj 1166 606 vsl 15 128 0.01 1 1 0 empty empty empty 1 -1 0 10 -262144
-1 -1 12069 1;
#X obj 1246 606 vsl 15 128 0.01 1 1 0 empty empty empty 1 -1 0 10 -262144
-1 -1 12459 1;
#X obj 1322 606 vsl 15 128 0.01 1 1 0 empty empty empty 1 -1 0 10 -262144
-1 -1 12592 1;
#X obj 488 405 abs;
#X floatatom 488 427 5 0 0 0 - - -, f 5;
#X obj 540 429 abs;
#X floatatom 540 451 5 0 0 0 - - -, f 5;
#X obj 630 449 abs;
#X floatatom 630 471 5 0 0 0 - - -, f 5;
#X obj 775 427 abs;
#X floatatom 775 449 5 0 0 0 - - -, f 5;
#X obj 849 449 abs;
#X floatatom 849 471 5 0 0 0 - - -, f 5;
#X obj 938 409 abs;
#X floatatom 938 431 5 0 0 0 - - -, f 5;
#X obj 1011 429 abs;
#X floatatom 1011 451 5 0 0 0 - - -, f 5;
#X obj 1082 450 abs;
#X floatatom 1082 472 5 0 0 0 - - -, f 5;
#X obj 1165 403 abs;
#X floatatom 1165 425 5 0 0 0 - - -, f 5;
#X obj 1250 424 abs;
#X floatatom 1250 446 5 0 0 0 - - -, f 5;
#X obj 1322 444 abs;
#X floatatom 1322 466 5 0 0 0 - - -, f 5;
#X obj 695 407 abs;
#X floatatom 695 429 5 0 0 0 - - -, f 5;
#X obj 848 127 metro 500;
#X obj 922 99 bng 15 250 50 0 empty empty empty 17 7 0 10 -262144 -1
-1;
#X obj 484 472 expr (1- $f1);
#X obj 540 496 expr (1- $f1);
#X obj 629 498 expr (1- $f1);
#X obj 682 450 expr (1- $f1);
#X obj 754 477 expr (1- $f1);
#X obj 847 499 expr (1- $f1);
#X obj 921 451 expr (1- $f1);
#X obj 982 477 expr (1- $f1);
#X obj 1090 494 expr (1- $f1);
#X obj 1150 445 expr (1- $f1);
#X obj 1221 470 expr (1- $f1);
#X obj 1289 497 expr (1- $f1);
#X obj 484 528 line;
#X msg 484 494 \$1 500;
#X obj 537 543 line;
#X obj 628 541 line;
#X obj 684 533 line;
#X obj 761 542 line;
#X obj 847 544 line;
#X obj 923 535 line;
#X obj 997 540 line;
#X obj 1084 542 line;
#X obj 1156 540 line;
#X obj 1228 538 line;
#X obj 1320 544 line;
#X msg 540 518 \$1 500;
#X msg 629 520 \$1 500;
#X msg 682 472 \$1 500;
#X msg 754 499 \$1 500;
#X msg 847 521 \$1 500;
#X msg 921 473 \$1 500;
#X msg 982 499 \$1 500;
#X msg 1090 516 \$1 500;
#X msg 1150 467 \$1 500;
#X msg 1221 492 \$1 500;
#X msg 1289 519 \$1 500;
#X obj 851 836 aubioquiet~;
#X obj 851 858 bng 15 250 50 0 empty empty empty 17 7 0 10 -262144
-1 -1;
#X obj 915 860 bng 15 250 50 0 empty empty empty 17 7 0 10 -262144
-1 -1;
#X obj 460 568 s sinAmp01;
#X obj 538 570 s sinAmp02;
#X obj 618 570 s sinAmp03;
#X obj 690 571 s sinAmp04;
#X obj 768 570 s sinAmp05;
#X obj 848 570 s sinAmp06;
#X obj 928 570 s sinAmp07;
#X obj 1008 570 s sinAmp08;
#X obj 1153 571 s sinAmp10;
#X obj 1223 571 s sinAmp11;
#X obj 1303 571 s sinAmp12;
#X obj 1076 570 s sinAmp09;
#X text 1102 881 it's just looping all inputs delayedly through a sine-shaped
envelope;
#X connect 2 0 3 0;
#X connect 3 0 91 0;
#X connect 4 0 5 0;
#X connect 4 0 6 0;
#X connect 5 0 4 1;
#X connect 6 0 7 0;
#X connect 6 0 24 0;
#X connect 6 0 25 0;
#X connect 6 0 26 0;
#X connect 6 0 27 0;
#X connect 6 0 28 0;
#X connect 6 0 29 0;
#X connect 6 0 30 0;
#X connect 6 0 31 0;
#X connect 6 0 32 0;
#X connect 6 0 33 0;
#X connect 6 0 34 0;
#X connect 7 0 8 0;
#X connect 8 0 2 0;
#X connect 9 0 35 0;
#X connect 10 0 11 0;
#X connect 12 0 36 0;
#X connect 13 0 37 0;
#X connect 14 0 38 0;
#X connect 15 0 39 0;
#X connect 16 0 40 0;
#X connect 17 0 41 0;
#X connect 18 0 42 0;
#X connect 19 0 43 0;
#X connect 20 0 44 0;
#X connect 21 0 45 0;
#X connect 22 0 23 0;
#X connect 22 0 115 0;
#X connect 23 0 4 0;
#X connect 24 0 9 0;
#X connect 25 0 12 0;
#X connect 26 0 13 0;
#X connect 27 0 14 0;
#X connect 28 0 15 0;
#X connect 29 0 16 0;
#X connect 30 0 17 0;
#X connect 31 0 18 0;
#X connect 32 0 19 0;
#X connect 33 0 20 0;
#X connect 34 0 21 0;
#X connect 35 0 46 0;
#X connect 36 0 47 0;
#X connect 37 0 48 0;
#X connect 38 0 49 0;
#X connect 39 0 50 0;
#X connect 40 0 51 0;
#X connect 41 0 52 0;
#X connect 42 0 53 0;
#X connect 43 0 54 0;
#X connect 44 0 55 0;
#X connect 45 0 56 0;
#X connect 46 0 57 0;
#X connect 47 0 59 0;
#X connect 48 0 61 0;
#X connect 49 0 63 0;
#X connect 50 0 65 0;
#X connect 51 0 67 0;
#X connect 52 0 69 0;
#X connect 53 0 71 0;
#X connect 54 0 73 0;
#X connect 55 0 75 0;
#X connect 56 0 77 0;
#X connect 57 0 58 0;
#X connect 58 0 93 0;
#X connect 59 0 60 0;
#X connect 60 0 95 0;
#X connect 61 0 62 0;
#X connect 62 0 113 0;
#X connect 63 0 64 0;
#X connect 64 0 97 0;
#X connect 65 0 66 0;
#X connect 66 0 99 0;
#X connect 67 0 68 0;
#X connect 68 0 101 0;
#X connect 69 0 70 0;
#X connect 70 0 103 0;
#X connect 71 0 72 0;
#X connect 72 0 105 0;
#X connect 73 0 74 0;
#X connect 74 0 107 0;
#X connect 75 0 76 0;
#X connect 76 0 109 0;
#X connect 77 0 78 0;
#X connect 78 0 111 0;
#X connect 79 0 153 0;
#X connect 80 0 153 0;
#X connect 81 0 153 0;
#X connect 82 0 153 0;
#X connect 83 0 153 0;
#X connect 84 0 153 0;
#X connect 85 0 153 0;
#X connect 86 0 153 0;
#X connect 87 0 153 0;
#X connect 88 0 153 0;
#X connect 89 0 153 0;
#X connect 90 0 153 0;
#X connect 91 0 92 0;
#X connect 92 0 117 0;
#X connect 93 0 94 0;
#X connect 94 0 118 0;
#X connect 95 0 96 0;
#X connect 96 0 119 0;
#X connect 97 0 98 0;
#X connect 98 0 121 0;
#X connect 99 0 100 0;
#X connect 100 0 122 0;
#X connect 101 0 102 0;
#X connect 102 0 123 0;
#X connect 103 0 104 0;
#X connect 104 0 124 0;
#X connect 105 0 106 0;
#X connect 106 0 125 0;
#X connect 107 0 108 0;
#X connect 108 0 126 0;
#X connect 109 0 110 0;
#X connect 110 0 127 0;
#X connect 111 0 112 0;
#X connect 112 0 128 0;
#X connect 113 0 114 0;
#X connect 114 0 120 0;
#X connect 115 0 4 0;
#X connect 116 0 115 0;
#X connect 117 0 130 0;
#X connect 118 0 142 0;
#X connect 119 0 143 0;
#X connect 120 0 144 0;
#X connect 121 0 145 0;
#X connect 122 0 146 0;
#X connect 123 0 147 0;
#X connect 124 0 148 0;
#X connect 125 0 149 0;
#X connect 126 0 150 0;
#X connect 127 0 151 0;
#X connect 128 0 152 0;
#X connect 129 0 79 0;
#X connect 129 0 156 0;
#X connect 130 0 129 0;
#X connect 131 0 80 0;
#X connect 131 0 157 0;
#X connect 132 0 81 0;
#X connect 132 0 158 0;
#X connect 133 0 82 0;
#X connect 133 0 159 0;
#X connect 134 0 83 0;
#X connect 134 0 160 0;
#X connect 135 0 84 0;
#X connect 135 0 161 0;
#X connect 136 0 85 0;
#X connect 136 0 162 0;
#X connect 137 0 86 0;
#X connect 137 0 163 0;
#X connect 138 0 87 0;
#X connect 138 0 167 0;
#X connect 139 0 88 0;
#X connect 139 0 164 0;
#X connect 140 0 89 0;
#X connect 140 0 165 0;
#X connect 141 0 90 0;
#X connect 141 0 166 0;
#X connect 142 0 131 0;
#X connect 143 0 132 0;
#X connect 144 0 133 0;
#X connect 145 0 134 0;
#X connect 146 0 135 0;
#X connect 147 0 136 0;
#X connect 148 0 137 0;
#X connect 149 0 138 0;
#X connect 150 0 139 0;
#X connect 151 0 140 0;
#X connect 152 0 141 0;
#X connect 153 0 154 0;
#X connect 153 1 155 0;
#X restore 59 17 pd amps;
#X obj 20 540 dac~;
#X obj 21 500 *~, f 2;
#X obj 11 446 r sinAmp01;
#X obj 17 414 +~;
#X text 60 40 contains sine amps;
#X obj 202 40 metro 50;
#X obj 202 62 s m50;
#X obj 202 6 loadbang;
#X obj 29 146 vu 15 120 empty empty -1 -8 0 10 -66577 -1 1 0;
#X obj 29 117 snapshot~;
#X obj 30 94 r m50;
#X obj 109 146 vu 15 120 empty empty -1 -8 0 10 -66577 -1 1 0;
#X obj 109 117 snapshot~;
#X obj 110 94 r m50;
#X obj 189 146 vu 15 120 empty empty -1 -8 0 10 -66577 -1 1 0;
#X obj 189 117 snapshot~;
#X obj 190 94 r m50;
#X obj 259 146 vu 15 120 empty empty -1 -8 0 10 -66577 -1 1 0;
#X obj 259 117 snapshot~;
#X obj 260 94 r m50;
#X obj 339 146 vu 15 120 empty empty -1 -8 0 10 -66577 -1 1 0;
#X obj 339 117 snapshot~;
#X obj 340 94 r m50;
#X obj 419 146 vu 15 120 empty empty -1 -8 0 10 -66577 -1 1 0;
#X obj 419 117 snapshot~;
#X obj 420 94 r m50;
#X obj 479 146 vu 15 120 empty empty -1 -8 0 10 -66577 -1 1 0;
#X obj 479 117 snapshot~;
#X obj 480 94 r m50;
#X obj 559 146 vu 15 120 empty empty -1 -8 0 10 -66577 -1 1 0;
#X obj 559 117 snapshot~;
#X obj 560 94 r m50;
#X obj 639 146 vu 15 120 empty empty -1 -8 0 10 -66577 -1 1 0;
#X obj 639 117 snapshot~;
#X obj 640 94 r m50;
#X obj 709 146 vu 15 120 empty empty -1 -8 0 10 -66577 -1 1 0;
#X obj 709 117 snapshot~;
#X obj 710 94 r m50;
#X obj 789 146 vu 15 120 empty empty -1 -8 0 10 -66577 -1 1 0;
#X obj 789 117 snapshot~;
#X obj 790 94 r m50;
#X obj 869 146 vu 15 120 empty empty -1 -8 0 10 -66577 -1 1 0;
#X obj 869 117 snapshot~;
#X obj 870 94 r m50;
#X obj 361 45 adc~ 1 2 3 4 5 6 7 8 9 10 11 12;
#X obj 265 20 bng 15 250 50 0 empty empty empty 17 7 0 10 -262144 -1
-1;
#X obj 14 631 vu 15 120 empty empty -1 -8 0 10 -66577 -1 1 0;
#X obj 14 595 snapshot~;
#X floatatom 11 468 5 0 0 0 - - -, f 5;
#X obj 41 563 r m50;
#X obj 100 540 dac~;
#X obj 101 500 *~, f 2;
#X obj 97 414 +~;
#X obj 94 595 snapshot~;
#X floatatom 91 468 5 0 0 0 - - -, f 5;
#X obj 121 563 r m50;
#X obj 91 446 r sinAmp02;
#X obj 170 540 dac~;
#X obj 171 500 *~, f 2;
#X obj 167 414 +~;
#X obj 164 595 snapshot~;
#X floatatom 161 468 5 0 0 0 - - -, f 5;
#X obj 191 563 r m50;
#X obj 250 540 dac~;
#X obj 251 500 *~, f 2;
#X obj 247 414 +~;
#X obj 244 595 snapshot~;
#X floatatom 241 468 5 0 0 0 - - -, f 5;
#X obj 271 563 r m50;
#X obj 330 540 dac~;
#X obj 331 500 *~, f 2;
#X obj 327 414 +~;
#X obj 324 595 snapshot~;
#X floatatom 321 468 5 0 0 0 - - -, f 5;
#X obj 351 563 r m50;
#X obj 410 540 dac~;
#X floatatom 422 354 5 0 0 0 - - -, f 5;
#X obj 422 375 / 100;
#X obj 411 500 *~, f 2;
#X obj 407 414 +~;
#X obj 404 595 snapshot~;
#X floatatom 401 468 5 0 0 0 - - -, f 5;
#X obj 431 563 r m50;
#X obj 480 540 dac~;
#X obj 481 500 *~, f 2;
#X obj 477 414 +~;
#X obj 474 595 snapshot~;
#X floatatom 471 468 5 0 0 0 - - -, f 5;
#X obj 501 563 r m50;
#X obj 552 540 dac~;
#X obj 553 500 *~, f 2;
#X obj 549 414 +~;
#X obj 546 595 snapshot~;
#X floatatom 543 468 5 0 0 0 - - -, f 5;
#X obj 573 563 r m50;
#X obj 632 540 dac~;
#X obj 633 500 *~, f 2;
#X obj 629 414 +~;
#X obj 626 595 snapshot~;
#X floatatom 623 468 5 0 0 0 - - -, f 5;
#X obj 653 563 r m50;
#X obj 712 540 dac~;
#X obj 713 500 *~, f 2;
#X obj 709 414 +~;
#X obj 706 595 snapshot~;
#X floatatom 703 468 5 0 0 0 - - -, f 5;
#X obj 733 563 r m50;
#X obj 792 540 dac~;
#X obj 793 500 *~, f 2;
#X obj 789 414 +~;
#X obj 786 595 snapshot~;
#X floatatom 783 468 5 0 0 0 - - -, f 5;
#X obj 813 563 r m50;
#X obj 862 540 dac~;
#X obj 863 500 *~, f 2;
#X obj 859 414 +~;
#X obj 856 595 snapshot~;
#X floatatom 853 468 5 0 0 0 - - -, f 5;
#X obj 883 563 r m50;
#X obj 161 446 r sinAmp03;
#X obj 241 446 r sinAmp04;
#X obj 321 446 r sinAmp05;
#X obj 401 446 r sinAmp06;
#X obj 471 446 r sinAmp07;
#X obj 543 446 r sinAmp08;
#X obj 623 446 r sinAmp09;
#X obj 703 446 r sinAmp10;
#X obj 783 446 r sinAmp11;
#X obj 854 446 r sinAmp12;
#X connect 1 0 2 0;
#X connect 1 1 3 0;
#X connect 5 0 6 0;
#X connect 7 0 8 0;
#X connect 8 0 5 1;
#X connect 9 0 5 0;
#X connect 12 0 13 0;
#X connect 12 1 14 0;
#X connect 17 0 18 0;
#X connect 17 1 19 0;
#X connect 22 0 23 0;
#X connect 22 1 24 0;
#X connect 27 0 28 0;
#X connect 27 1 29 0;
#X connect 32 0 33 0;
#X connect 32 1 34 0;
#X connect 37 0 38 0;
#X connect 37 1 39 0;
#X connect 42 0 43 0;
#X connect 42 1 44 0;
#X connect 47 0 48 0;
#X connect 47 1 49 0;
#X connect 52 0 53 0;
#X connect 52 1 54 0;
#X connect 57 0 58 0;
#X connect 57 1 59 0;
#X connect 62 0 63 0;
#X connect 62 1 64 0;
#X connect 69 0 68 1;
#X connect 69 0 115 0;
#X connect 69 0 68 0;
#X connect 70 0 69 1;
#X connect 70 0 116 0;
#X connect 71 0 69 0;
#X connect 73 0 74 0;
#X connect 75 0 73 0;
#X connect 75 0 74 0;
#X connect 77 0 76 0;
#X connect 78 0 77 0;
#X connect 80 0 79 0;
#X connect 81 0 80 0;
#X connect 83 0 82 0;
#X connect 84 0 83 0;
#X connect 86 0 85 0;
#X connect 87 0 86 0;
#X connect 89 0 88 0;
#X connect 90 0 89 0;
#X connect 92 0 91 0;
#X connect 93 0 92 0;
#X connect 95 0 94 0;
#X connect 96 0 95 0;
#X connect 98 0 97 0;
#X connect 99 0 98 0;
#X connect 101 0 100 0;
#X connect 102 0 101 0;
#X connect 104 0 103 0;
#X connect 105 0 104 0;
#X connect 107 0 106 0;
#X connect 108 0 107 0;
#X connect 110 0 109 0;
#X connect 111 0 110 0;
#X connect 112 0 1 0;
#X connect 112 0 77 0;
#X connect 112 0 71 0;
#X connect 112 1 12 0;
#X connect 112 1 80 0;
#X connect 112 1 120 0;
#X connect 112 2 17 0;
#X connect 112 2 22 0;
#X connect 112 2 83 0;
#X connect 112 2 127 0;
#X connect 112 3 27 0;
#X connect 112 3 86 0;
#X connect 112 3 133 0;
#X connect 112 4 32 0;
#X connect 112 4 89 0;
#X connect 112 4 139 0;
#X connect 112 5 37 0;
#X connect 112 5 92 0;
#X connect 112 5 147 0;
#X connect 112 6 42 0;
#X connect 112 6 95 0;
#X connect 112 6 153 0;
#X connect 112 7 47 0;
#X connect 112 7 98 0;
#X connect 112 7 159 0;
#X connect 112 8 52 0;
#X connect 112 8 101 0;
#X connect 112 8 165 0;
#X connect 112 9 57 0;
#X connect 112 9 104 0;
#X connect 112 9 171 0;
#X connect 112 10 62 0;
#X connect 112 10 107 0;
#X connect 112 10 177 0;
#X connect 112 11 110 0;
#X connect 112 11 183 0;
#X connect 113 0 73 0;
#X connect 115 0 114 0;
#X connect 117 0 115 0;
#X connect 119 0 118 1;
#X connect 119 0 121 0;
#X connect 119 0 118 0;
#X connect 120 0 119 0;
#X connect 123 0 121 0;
#X connect 124 0 119 1;
#X connect 124 0 122 0;
#X connect 126 0 125 1;
#X connect 126 0 128 0;
#X connect 126 0 125 0;
#X connect 127 0 126 0;
#X connect 130 0 128 0;
#X connect 132 0 131 1;
#X connect 132 0 134 0;
#X connect 132 0 131 0;
#X connect 133 0 132 0;
#X connect 136 0 134 0;
#X connect 138 0 137 1;
#X connect 138 0 140 0;
#X connect 138 0 137 0;
#X connect 139 0 138 0;
#X connect 142 0 140 0;
#X connect 144 0 145 0;
#X connect 145 0 147 1;
#X connect 145 0 139 1;
#X connect 145 0 153 1;
#X connect 145 0 133 1;
#X connect 145 0 127 1;
#X connect 145 0 120 1;
#X connect 145 0 71 1;
#X connect 145 0 159 1;
#X connect 145 0 165 1;
#X connect 145 0 171 1;
#X connect 145 0 177 1;
#X connect 145 0 183 1;
#X connect 146 0 143 1;
#X connect 146 0 148 0;
#X connect 146 0 143 0;
#X connect 147 0 146 0;
#X connect 150 0 148 0;
#X connect 152 0 151 1;
#X connect 152 0 154 0;
#X connect 152 0 151 0;
#X connect 153 0 152 0;
#X connect 156 0 154 0;
#X connect 158 0 157 1;
#X connect 158 0 160 0;
#X connect 158 0 157 0;
#X connect 159 0 158 0;
#X connect 162 0 160 0;
#X connect 164 0 163 1;
#X connect 164 0 166 0;
#X connect 164 0 163 0;
#X connect 165 0 164 0;
#X connect 168 0 166 0;
#X connect 170 0 169 1;
#X connect 170 0 172 0;
#X connect 170 0 169 0;
#X connect 171 0 170 0;
#X connect 174 0 172 0;
#X connect 176 0 175 1;
#X connect 176 0 178 0;
#X connect 176 0 175 0;
#X connect 177 0 176 0;
#X connect 180 0 178 0;
#X connect 182 0 181 1;
#X connect 182 0 184 0;
#X connect 182 0 181 0;
#X connect 183 0 182 0;
#X connect 186 0 184 0;
#X connect 187 0 126 1;
#X connect 187 0 129 0;
#X connect 188 0 132 1;
#X connect 188 0 135 0;
#X connect 189 0 138 1;
#X connect 189 0 141 0;
#X connect 190 0 146 1;
#X connect 190 0 149 0;
#X connect 191 0 152 1;
#X connect 191 0 155 0;
#X connect 192 0 158 1;
#X connect 192 0 161 0;
#X connect 193 0 164 1;
#X connect 193 0 167 0;
#X connect 194 0 170 1;
#X connect 194 0 173 0;
#X connect 195 0 176 1;
#X connect 195 0 179 0;
#X connect 196 0 182 1;
#X connect 196 0 185 0;
