#N canvas 47 440 1675 415 10;
#X obj 32 190 s sig01state;
#X obj 25 232 tabwrite channels;
#X msg 121 192 0;
#X obj 121 168 r lbng;
#X obj 175 232 tabwrite channels;
#X obj 271 168 r lbng;
#X msg 271 192 1;
#X obj 182 190 s sig02state;
#X floatatom 271 214 5 0 0 0 - - -, f 5;
#X floatatom 121 214 5 0 0 0 - - -, f 5;
#X obj 325 232 tabwrite channels;
#X obj 421 168 r lbng;
#X obj 475 232 tabwrite channels;
#X obj 571 168 r lbng;
#X floatatom 571 214 5 0 0 0 - - -, f 5;
#X floatatom 421 214 5 0 0 0 - - -, f 5;
#X msg 421 192 2;
#X msg 571 192 3;
#X obj 643 232 tabwrite channels;
#X obj 739 168 r lbng;
#X obj 793 232 tabwrite channels;
#X obj 889 168 r lbng;
#X floatatom 889 214 5 0 0 0 - - -, f 5;
#X floatatom 739 214 5 0 0 0 - - -, f 5;
#X obj 943 232 tabwrite channels;
#X obj 1039 168 r lbng;
#X obj 1093 232 tabwrite channels;
#X obj 1189 168 r lbng;
#X floatatom 1189 214 5 0 0 0 - - -, f 5;
#X floatatom 1039 214 5 0 0 0 - - -, f 5;
#X obj 1238 232 tabwrite channels;
#X obj 1334 168 r lbng;
#X obj 1388 232 tabwrite channels;
#X obj 1484 168 r lbng;
#X floatatom 1484 214 5 0 0 0 - - -, f 5;
#X floatatom 1334 214 5 0 0 0 - - -, f 5;
#X obj 1538 232 tabwrite channels;
#X obj 1634 168 r lbng;
#X obj 1688 232 tabwrite channels;
#X obj 1784 168 r lbng;
#X floatatom 1784 214 5 0 0 0 - - -, f 5;
#X floatatom 1634 214 5 0 0 0 - - -, f 5;
#X obj 332 190 s sig03state;
#X obj 482 190 s sig04state;
#X obj 650 190 s sig05state;
#X obj 800 190 s sig06state;
#X obj 950 190 s sig07state;
#X obj 1100 190 s sig08state;
#X obj 1245 190 s sig09state;
#X obj 1395 189 s sig10state;
#X obj 1545 190 s sig11state;
#X obj 1695 190 s sig12state;
#X msg 912 29 -90;
#X obj 912 5 r lbng;
#X obj 28 22 inlet;
#X floatatom 31 50 5 0 0 0 - - -, f 5;
#X floatatom 31 95 5 0 0 0 - - -, f 5;
#X obj 137 119 ||;
#X floatatom 137 141 5 0 0 0 - - -, f 5;
#X obj 31 73 >;
#X obj 180 26 inlet;
#X floatatom 183 54 5 0 0 0 - - -, f 5;
#X floatatom 183 99 5 0 0 0 - - -, f 5;
#X obj 183 77 >;
#X obj 371 25 inlet;
#X floatatom 374 53 5 0 0 0 - - -, f 5;
#X floatatom 374 98 5 0 0 0 - - -, f 5;
#X obj 374 76 >;
#X obj 455 108 ||;
#X floatatom 455 130 5 0 0 0 - - -, f 5;
#X obj 507 28 inlet;
#X floatatom 510 56 5 0 0 0 - - -, f 5;
#X floatatom 510 101 5 0 0 0 - - -, f 5;
#X obj 510 79 >;
#X obj 752 110 ||;
#X floatatom 752 132 5 0 0 0 - - -, f 5;
#X obj 1070 111 ||;
#X floatatom 1070 133 5 0 0 0 - - -, f 5;
#X obj 1350 113 ||;
#X floatatom 1350 135 5 0 0 0 - - -, f 5;
#X obj 1663 114 ||;
#X floatatom 1663 136 5 0 0 0 - - -, f 5;
#X obj 674 28 inlet;
#X floatatom 677 56 5 0 0 0 - - -, f 5;
#X floatatom 677 101 5 0 0 0 - - -, f 5;
#X obj 677 79 >;
#X obj 834 24 inlet;
#X floatatom 837 52 5 0 0 0 - - -, f 5;
#X floatatom 837 97 5 0 0 0 - - -, f 5;
#X obj 837 75 >;
#X obj 988 25 inlet;
#X floatatom 991 53 5 0 0 0 - - -, f 5;
#X floatatom 991 98 5 0 0 0 - - -, f 5;
#X obj 991 76 >;
#X obj 1144 20 inlet;
#X floatatom 1147 48 5 0 0 0 - - -, f 5;
#X floatatom 1147 93 5 0 0 0 - - -, f 5;
#X obj 1147 71 >;
#X obj 1268 24 inlet;
#X floatatom 1271 52 5 0 0 0 - - -, f 5;
#X floatatom 1271 97 5 0 0 0 - - -, f 5;
#X obj 1271 75 >;
#X obj 1431 25 inlet;
#X floatatom 1434 53 5 0 0 0 - - -, f 5;
#X floatatom 1434 98 5 0 0 0 - - -, f 5;
#X obj 1434 76 >;
#X obj 1579 31 inlet;
#X floatatom 1582 59 5 0 0 0 - - -, f 5;
#X floatatom 1582 104 5 0 0 0 - - -, f 5;
#X obj 1582 82 >;
#X obj 1728 27 inlet;
#X floatatom 1731 55 5 0 0 0 - - -, f 5;
#X floatatom 1731 100 5 0 0 0 - - -, f 5;
#X obj 1731 78 >;
#X msg 739 192 4;
#X msg 889 192 5;
#X msg 1041 192 6;
#X msg 1189 192 7;
#X msg 1334 192 8;
#X msg 1486 191 9;
#X msg 1634 192 10;
#X msg 1784 192 11;
#X obj 282 278 ||;
#X floatatom 282 300 5 0 0 0 - - -, f 5;
#X obj 912 278 ||;
#X floatatom 912 300 5 0 0 0 - - -, f 5;
#X obj 1512 278 ||;
#X floatatom 1512 300 5 0 0 0 - - -, f 5;
#X obj 578 352 ||;
#X floatatom 578 374 5 0 0 0 - - -, f 5;
#X obj 1259 341 ||;
#X floatatom 1259 363 5 0 0 0 - - -, f 5;
#X obj 918 423 ||;
#X floatatom 918 445 5 0 0 0 - - -, f 5;
#X text 1736 604 comment;
#X obj 918 466 outlet;
#X connect 2 0 9 0;
#X connect 3 0 2 0;
#X connect 5 0 6 0;
#X connect 6 0 8 0;
#X connect 8 0 4 1;
#X connect 9 0 1 1;
#X connect 11 0 16 0;
#X connect 13 0 17 0;
#X connect 14 0 12 1;
#X connect 15 0 10 1;
#X connect 16 0 15 0;
#X connect 17 0 14 0;
#X connect 19 0 114 0;
#X connect 21 0 115 0;
#X connect 22 0 20 1;
#X connect 23 0 18 1;
#X connect 25 0 116 0;
#X connect 27 0 117 0;
#X connect 28 0 26 1;
#X connect 29 0 24 1;
#X connect 31 0 118 0;
#X connect 33 0 119 0;
#X connect 34 0 32 1;
#X connect 35 0 30 1;
#X connect 37 0 120 0;
#X connect 39 0 121 0;
#X connect 40 0 38 1;
#X connect 41 0 36 1;
#X connect 52 0 59 1;
#X connect 52 0 63 1;
#X connect 52 0 67 1;
#X connect 52 0 73 1;
#X connect 52 0 85 1;
#X connect 52 0 89 1;
#X connect 52 0 93 1;
#X connect 52 0 97 1;
#X connect 52 0 101 1;
#X connect 52 0 105 1;
#X connect 52 0 109 1;
#X connect 52 0 113 1;
#X connect 53 0 52 0;
#X connect 54 0 55 0;
#X connect 55 0 59 0;
#X connect 56 0 57 0;
#X connect 56 0 0 0;
#X connect 56 0 1 0;
#X connect 57 0 58 0;
#X connect 58 0 122 0;
#X connect 59 0 56 0;
#X connect 60 0 61 0;
#X connect 61 0 63 0;
#X connect 62 0 57 1;
#X connect 62 0 7 0;
#X connect 62 0 4 0;
#X connect 63 0 62 0;
#X connect 64 0 65 0;
#X connect 65 0 67 0;
#X connect 66 0 42 0;
#X connect 66 0 68 0;
#X connect 66 0 10 0;
#X connect 67 0 66 0;
#X connect 68 0 69 0;
#X connect 69 0 122 1;
#X connect 70 0 71 0;
#X connect 71 0 73 0;
#X connect 72 0 68 1;
#X connect 72 0 43 0;
#X connect 72 0 12 0;
#X connect 73 0 72 0;
#X connect 74 0 75 0;
#X connect 75 0 124 0;
#X connect 76 0 77 0;
#X connect 77 0 124 1;
#X connect 78 0 79 0;
#X connect 79 0 126 0;
#X connect 80 0 81 0;
#X connect 81 0 126 1;
#X connect 82 0 83 0;
#X connect 83 0 85 0;
#X connect 84 0 44 0;
#X connect 84 0 18 0;
#X connect 84 0 74 0;
#X connect 85 0 84 0;
#X connect 86 0 87 0;
#X connect 87 0 89 0;
#X connect 88 0 45 0;
#X connect 88 0 20 0;
#X connect 88 0 74 1;
#X connect 89 0 88 0;
#X connect 90 0 91 0;
#X connect 91 0 93 0;
#X connect 92 0 46 0;
#X connect 92 0 24 0;
#X connect 92 0 76 0;
#X connect 93 0 92 0;
#X connect 94 0 95 0;
#X connect 95 0 97 0;
#X connect 96 0 47 0;
#X connect 96 0 26 0;
#X connect 96 0 76 1;
#X connect 97 0 96 0;
#X connect 98 0 99 0;
#X connect 99 0 101 0;
#X connect 100 0 48 0;
#X connect 100 0 30 0;
#X connect 100 0 78 0;
#X connect 101 0 100 0;
#X connect 102 0 103 0;
#X connect 103 0 105 0;
#X connect 104 0 49 0;
#X connect 104 0 32 0;
#X connect 104 0 78 1;
#X connect 105 0 104 0;
#X connect 106 0 107 0;
#X connect 107 0 109 0;
#X connect 108 0 50 0;
#X connect 108 0 36 0;
#X connect 108 0 80 0;
#X connect 109 0 108 0;
#X connect 110 0 111 0;
#X connect 111 0 113 0;
#X connect 112 0 51 0;
#X connect 112 0 38 0;
#X connect 112 0 80 1;
#X connect 113 0 112 0;
#X connect 114 0 23 0;
#X connect 115 0 22 0;
#X connect 116 0 29 0;
#X connect 117 0 28 0;
#X connect 118 0 35 0;
#X connect 119 0 34 0;
#X connect 120 0 41 0;
#X connect 121 0 40 0;
#X connect 122 0 123 0;
#X connect 123 0 128 0;
#X connect 124 0 125 0;
#X connect 125 0 128 1;
#X connect 125 0 130 0;
#X connect 125 0 131 0;
#X connect 126 0 127 0;
#X connect 127 0 130 1;
#X connect 128 0 129 0;
#X connect 129 0 132 0;
#X connect 130 0 131 0;
#X connect 131 0 132 1;
#X connect 132 0 133 0;
#X connect 133 0 135 0;
