#N canvas 90 322 406 505 10;
#X obj 124 22 inlet~;
#X obj 164 65 delwrite~ thisBuffer+\$0 2000;
#X obj -22 345 delread~ thisBuffer+\$0 2000;
#X obj 124 65 env~;
#X obj 124 107 < -60;
#X obj 60 373 *~;
#X msg 53 279 0 2000;
#X obj 124 129 change;
#X obj 74 151 t b f;
#X obj 114 183 == 0;
#X msg 114 279 1 2000;
#X obj 54 184 == 1;
#X obj 17 210 spigot;
#X obj 102 213 spigot;
#X obj 102 235 delay 2000;
#X obj 77 316 line;
#X obj 48 426 outlet~;
#X floatatom 37 318 5 0 0 0 - - -, f 5;
#X obj 124 87 - 100;
#X floatatom 84 89 5 0 0 0 - - -, f 5;
#X connect 0 0 1 0;
#X connect 0 0 3 0;
#X connect 2 0 5 0;
#X connect 3 0 18 0;
#X connect 4 0 7 0;
#X connect 5 0 16 0;
#X connect 6 0 15 0;
#X connect 7 0 8 0;
#X connect 8 0 12 0;
#X connect 8 0 13 0;
#X connect 8 1 11 0;
#X connect 8 1 9 0;
#X connect 9 0 13 1;
#X connect 10 0 15 0;
#X connect 11 0 12 1;
#X connect 12 0 6 0;
#X connect 13 0 14 0;
#X connect 14 0 10 0;
#X connect 15 0 5 1;
#X connect 15 0 17 0;
#X connect 18 0 4 0;
#X connect 18 0 19 0;
