#N canvas 358 266 763 659 10;
#X obj 30 64 bng 15 250 50 0 empty empty empty 17 7 0 10 -262144 -1
-1;
#X obj 85 64 bng 15 250 50 0 empty empty empty 17 7 0 10 -262144 -1
-1;
#X msg 32 83 0;
#X msg 86 87 1;
#X obj 32 120 s sig01state;
#X obj 30 42 aubioquiet~ -90;
#X obj 25 162 tabwrite channels;
#X msg 121 122 0;
#X obj 121 98 r lbng;
#X obj 30 21 inlet~;
#X obj 180 64 bng 15 250 50 0 empty empty empty 17 7 0 10 -262144 -1
-1;
#X obj 235 64 bng 15 250 50 0 empty empty empty 17 7 0 10 -262144 -1
-1;
#X msg 182 83 0;
#X obj 180 42 aubioquiet~ -90;
#X obj 175 162 tabwrite channels;
#X obj 271 98 r lbng;
#X obj 180 21 inlet~;
#X msg 236 87 1;
#X msg 271 122 1;
#X obj 182 120 s sig02state;
#X floatatom 271 144 5 0 0 0 - - -, f 5;
#X floatatom 121 144 5 0 0 0 - - -, f 5;
#X obj 330 64 bng 15 250 50 0 empty empty empty 17 7 0 10 -262144 -1
-1;
#X obj 385 64 bng 15 250 50 0 empty empty empty 17 7 0 10 -262144 -1
-1;
#X msg 332 83 0;
#X msg 386 87 1;
#X obj 330 42 aubioquiet~ -90;
#X obj 325 162 tabwrite channels;
#X obj 421 98 r lbng;
#X obj 330 21 inlet~;
#X obj 480 64 bng 15 250 50 0 empty empty empty 17 7 0 10 -262144 -1
-1;
#X obj 535 64 bng 15 250 50 0 empty empty empty 17 7 0 10 -262144 -1
-1;
#X msg 482 83 0;
#X obj 480 42 aubioquiet~ -90;
#X obj 475 162 tabwrite channels;
#X obj 571 98 r lbng;
#X obj 480 21 inlet~;
#X msg 536 87 1;
#X floatatom 571 144 5 0 0 0 - - -, f 5;
#X floatatom 421 144 5 0 0 0 - - -, f 5;
#X msg 421 122 2;
#X msg 571 122 3;
#X obj 30 234 bng 15 250 50 0 empty empty empty 17 7 0 10 -262144 -1
-1;
#X obj 85 234 bng 15 250 50 0 empty empty empty 17 7 0 10 -262144 -1
-1;
#X msg 32 253 0;
#X msg 86 257 1;
#X obj 30 212 aubioquiet~ -90;
#X obj 25 332 tabwrite channels;
#X obj 121 268 r lbng;
#X obj 30 191 inlet~;
#X obj 180 234 bng 15 250 50 0 empty empty empty 17 7 0 10 -262144
-1 -1;
#X obj 235 234 bng 15 250 50 0 empty empty empty 17 7 0 10 -262144
-1 -1;
#X msg 182 253 0;
#X obj 180 212 aubioquiet~ -90;
#X obj 175 332 tabwrite channels;
#X obj 271 268 r lbng;
#X obj 180 191 inlet~;
#X msg 236 257 1;
#X floatatom 271 314 5 0 0 0 - - -, f 5;
#X floatatom 121 314 5 0 0 0 - - -, f 5;
#X obj 330 234 bng 15 250 50 0 empty empty empty 17 7 0 10 -262144
-1 -1;
#X obj 385 234 bng 15 250 50 0 empty empty empty 17 7 0 10 -262144
-1 -1;
#X msg 332 253 0;
#X msg 386 257 1;
#X obj 330 212 aubioquiet~ -90;
#X obj 325 332 tabwrite channels;
#X obj 421 268 r lbng;
#X obj 330 191 inlet~;
#X obj 480 234 bng 15 250 50 0 empty empty empty 17 7 0 10 -262144
-1 -1;
#X obj 535 234 bng 15 250 50 0 empty empty empty 17 7 0 10 -262144
-1 -1;
#X msg 482 253 0;
#X obj 480 212 aubioquiet~ -90;
#X obj 475 332 tabwrite channels;
#X obj 571 268 r lbng;
#X obj 480 191 inlet~;
#X msg 536 257 1;
#X floatatom 571 314 5 0 0 0 - - -, f 5;
#X floatatom 421 314 5 0 0 0 - - -, f 5;
#X obj 30 404 bng 15 250 50 0 empty empty empty 17 7 0 10 -262144 -1
-1;
#X obj 85 404 bng 15 250 50 0 empty empty empty 17 7 0 10 -262144 -1
-1;
#X msg 32 423 0;
#X msg 86 427 1;
#X obj 30 382 aubioquiet~ -90;
#X obj 25 502 tabwrite channels;
#X obj 121 438 r lbng;
#X obj 30 361 inlet~;
#X obj 180 404 bng 15 250 50 0 empty empty empty 17 7 0 10 -262144
-1 -1;
#X obj 235 404 bng 15 250 50 0 empty empty empty 17 7 0 10 -262144
-1 -1;
#X msg 182 423 0;
#X obj 180 382 aubioquiet~ -90;
#X obj 175 502 tabwrite channels;
#X obj 271 438 r lbng;
#X obj 180 361 inlet~;
#X msg 236 427 1;
#X floatatom 271 484 5 0 0 0 - - -, f 5;
#X floatatom 121 484 5 0 0 0 - - -, f 5;
#X obj 330 404 bng 15 250 50 0 empty empty empty 17 7 0 10 -262144
-1 -1;
#X obj 385 404 bng 15 250 50 0 empty empty empty 17 7 0 10 -262144
-1 -1;
#X msg 332 423 0;
#X msg 386 427 1;
#X obj 330 382 aubioquiet~ -90;
#X obj 325 502 tabwrite channels;
#X obj 421 438 r lbng;
#X obj 330 361 inlet~;
#X obj 480 404 bng 15 250 50 0 empty empty empty 17 7 0 10 -262144
-1 -1;
#X obj 535 404 bng 15 250 50 0 empty empty empty 17 7 0 10 -262144
-1 -1;
#X msg 482 423 0;
#X obj 480 382 aubioquiet~ -90;
#X obj 475 502 tabwrite channels;
#X obj 571 438 r lbng;
#X obj 480 361 inlet~;
#X msg 536 427 1;
#X floatatom 571 484 5 0 0 0 - - -, f 5;
#X floatatom 421 484 5 0 0 0 - - -, f 5;
#X msg 121 292 5;
#X msg 271 292 6;
#X msg 423 292 7;
#X msg 571 292 8;
#X msg 121 462 9;
#X msg 271 462 10;
#X msg 421 462 11;
#X msg 571 462 12;
#X obj 332 120 s sig03state;
#X obj 482 120 s sig04state;
#X obj 32 290 s sig05state;
#X obj 182 290 s sig06state;
#X obj 332 290 s sig07state;
#X obj 482 290 s sig08state;
#X obj 32 460 s sig09state;
#X obj 182 459 s sig10state;
#X obj 332 460 s sig11state;
#X obj 482 460 s sig12state;
#X connect 0 0 2 0;
#X connect 1 0 3 0;
#X connect 2 0 4 0;
#X connect 2 0 6 0;
#X connect 3 0 4 0;
#X connect 3 0 6 0;
#X connect 5 0 0 0;
#X connect 5 1 1 0;
#X connect 7 0 21 0;
#X connect 8 0 7 0;
#X connect 8 0 3 0;
#X connect 9 0 5 0;
#X connect 10 0 12 0;
#X connect 11 0 17 0;
#X connect 12 0 14 0;
#X connect 12 0 19 0;
#X connect 13 0 10 0;
#X connect 13 1 11 0;
#X connect 15 0 18 0;
#X connect 15 0 17 0;
#X connect 16 0 13 0;
#X connect 17 0 14 0;
#X connect 17 0 19 0;
#X connect 18 0 20 0;
#X connect 20 0 14 1;
#X connect 21 0 6 1;
#X connect 22 0 24 0;
#X connect 23 0 25 0;
#X connect 24 0 27 0;
#X connect 24 0 122 0;
#X connect 25 0 27 0;
#X connect 25 0 122 0;
#X connect 26 0 22 0;
#X connect 26 1 23 0;
#X connect 28 0 40 0;
#X connect 28 0 25 0;
#X connect 29 0 26 0;
#X connect 30 0 32 0;
#X connect 31 0 37 0;
#X connect 32 0 34 0;
#X connect 32 0 123 0;
#X connect 33 0 30 0;
#X connect 33 1 31 0;
#X connect 35 0 41 0;
#X connect 35 0 37 0;
#X connect 36 0 33 0;
#X connect 37 0 34 0;
#X connect 37 0 123 0;
#X connect 38 0 34 1;
#X connect 39 0 27 1;
#X connect 40 0 39 0;
#X connect 41 0 38 0;
#X connect 42 0 44 0;
#X connect 43 0 45 0;
#X connect 44 0 47 0;
#X connect 44 0 124 0;
#X connect 45 0 47 0;
#X connect 45 0 124 0;
#X connect 46 0 42 0;
#X connect 46 1 43 0;
#X connect 48 0 114 0;
#X connect 48 0 45 0;
#X connect 49 0 46 0;
#X connect 50 0 52 0;
#X connect 51 0 57 0;
#X connect 52 0 54 0;
#X connect 52 0 125 0;
#X connect 53 0 50 0;
#X connect 53 1 51 0;
#X connect 55 0 115 0;
#X connect 55 0 57 0;
#X connect 56 0 53 0;
#X connect 57 0 54 0;
#X connect 57 0 125 0;
#X connect 58 0 54 1;
#X connect 59 0 47 1;
#X connect 60 0 62 0;
#X connect 61 0 63 0;
#X connect 62 0 65 0;
#X connect 62 0 126 0;
#X connect 63 0 65 0;
#X connect 63 0 126 0;
#X connect 64 0 60 0;
#X connect 64 1 61 0;
#X connect 66 0 116 0;
#X connect 66 0 63 0;
#X connect 67 0 64 0;
#X connect 68 0 70 0;
#X connect 69 0 75 0;
#X connect 70 0 72 0;
#X connect 70 0 127 0;
#X connect 71 0 68 0;
#X connect 71 1 69 0;
#X connect 73 0 117 0;
#X connect 73 0 75 0;
#X connect 74 0 71 0;
#X connect 75 0 72 0;
#X connect 75 0 127 0;
#X connect 76 0 72 1;
#X connect 77 0 65 1;
#X connect 78 0 80 0;
#X connect 79 0 81 0;
#X connect 80 0 83 0;
#X connect 80 0 128 0;
#X connect 81 0 83 0;
#X connect 81 0 128 0;
#X connect 82 0 78 0;
#X connect 82 1 79 0;
#X connect 84 0 118 0;
#X connect 84 0 81 0;
#X connect 85 0 82 0;
#X connect 86 0 88 0;
#X connect 87 0 93 0;
#X connect 88 0 90 0;
#X connect 88 0 129 0;
#X connect 89 0 86 0;
#X connect 89 1 87 0;
#X connect 91 0 119 0;
#X connect 91 0 93 0;
#X connect 92 0 89 0;
#X connect 93 0 90 0;
#X connect 93 0 129 0;
#X connect 94 0 90 1;
#X connect 95 0 83 1;
#X connect 96 0 98 0;
#X connect 97 0 99 0;
#X connect 98 0 101 0;
#X connect 98 0 130 0;
#X connect 99 0 101 0;
#X connect 99 0 130 0;
#X connect 100 0 96 0;
#X connect 100 1 97 0;
#X connect 102 0 120 0;
#X connect 102 0 99 0;
#X connect 103 0 100 0;
#X connect 104 0 106 0;
#X connect 105 0 111 0;
#X connect 106 0 108 0;
#X connect 106 0 131 0;
#X connect 107 0 104 0;
#X connect 107 1 105 0;
#X connect 109 0 121 0;
#X connect 109 0 111 0;
#X connect 110 0 107 0;
#X connect 111 0 108 0;
#X connect 111 0 131 0;
#X connect 112 0 108 1;
#X connect 113 0 101 1;
#X connect 114 0 59 0;
#X connect 115 0 58 0;
#X connect 116 0 77 0;
#X connect 117 0 76 0;
#X connect 118 0 95 0;
#X connect 119 0 94 0;
#X connect 120 0 113 0;
#X connect 121 0 112 0;
