#N canvas 953 52 967 1005 10;
#X obj 9 15 aubio;
#X obj 11 280 aubioquiet~;
#X obj 11 302 bng 15 250 50 0 empty empty empty 17 7 0 10 -262144 -1
-1;
#X obj 10 322 bng 15 250 50 0 empty empty empty 17 7 0 10 -262144 -1
-1;
#X text 25 302 silence;
#X text 28 323 signal;
#X obj 89 280 aubioquiet~;
#X obj 89 302 bng 15 250 50 0 empty empty empty 17 7 0 10 -262144 -1
-1;
#X obj 88 321 bng 15 250 50 0 empty empty empty 17 7 0 10 -262144 -1
-1;
#X text 103 302 silence;
#X text 106 323 signal;
#X obj 165 281 aubioquiet~;
#X obj 165 303 bng 15 250 50 0 empty empty empty 17 7 0 10 -262144
-1 -1;
#X obj 164 322 bng 15 250 50 0 empty empty empty 17 7 0 10 -262144
-1 -1;
#X text 179 303 silence;
#X text 182 324 signal;
#X obj 243 281 aubioquiet~;
#X obj 243 303 bng 15 250 50 0 empty empty empty 17 7 0 10 -262144
-1 -1;
#X obj 242 322 bng 15 250 50 0 empty empty empty 17 7 0 10 -262144
-1 -1;
#X text 257 303 silence;
#X text 260 324 signal;
#X obj 320 282 aubioquiet~;
#X obj 320 304 bng 15 250 50 0 empty empty empty 17 7 0 10 -262144
-1 -1;
#X obj 319 323 bng 15 250 50 0 empty empty empty 17 7 0 10 -262144
-1 -1;
#X text 334 304 silence;
#X text 337 325 signal;
#X obj 398 282 aubioquiet~;
#X obj 398 304 bng 15 250 50 0 empty empty empty 17 7 0 10 -262144
-1 -1;
#X obj 397 323 bng 15 250 50 0 empty empty empty 17 7 0 10 -262144
-1 -1;
#X text 412 304 silence;
#X text 415 325 signal;
#X obj 474 283 aubioquiet~;
#X obj 474 305 bng 15 250 50 0 empty empty empty 17 7 0 10 -262144
-1 -1;
#X obj 473 324 bng 15 250 50 0 empty empty empty 17 7 0 10 -262144
-1 -1;
#X text 488 305 silence;
#X text 491 326 signal;
#X obj 552 283 aubioquiet~;
#X obj 552 305 bng 15 250 50 0 empty empty empty 17 7 0 10 -262144
-1 -1;
#X obj 551 324 bng 15 250 50 0 empty empty empty 17 7 0 10 -262144
-1 -1;
#X text 566 305 silence;
#X text 569 326 signal;
#X obj 630 282 aubioquiet~;
#X obj 630 304 bng 15 250 50 0 empty empty empty 17 7 0 10 -262144
-1 -1;
#X obj 629 323 bng 15 250 50 0 empty empty empty 17 7 0 10 -262144
-1 -1;
#X text 644 304 silence;
#X text 647 325 signal;
#X obj 708 282 aubioquiet~;
#X obj 708 304 bng 15 250 50 0 empty empty empty 17 7 0 10 -262144
-1 -1;
#X obj 707 323 bng 15 250 50 0 empty empty empty 17 7 0 10 -262144
-1 -1;
#X text 722 304 silence;
#X text 725 325 signal;
#X obj 784 283 aubioquiet~;
#X obj 784 305 bng 15 250 50 0 empty empty empty 17 7 0 10 -262144
-1 -1;
#X obj 783 324 bng 15 250 50 0 empty empty empty 17 7 0 10 -262144
-1 -1;
#X text 798 305 silence;
#X text 801 326 signal;
#X obj 862 283 aubioquiet~;
#X obj 862 305 bng 15 250 50 0 empty empty empty 17 7 0 10 -262144
-1 -1;
#X obj 861 324 bng 15 250 50 0 empty empty empty 17 7 0 10 -262144
-1 -1;
#X text 876 305 silence;
#X text 879 326 signal;
#X obj 71 953 dac~;
#X obj 72 913 *~, f 2;
#X obj 68 827 +~;
#X obj 202 40 metro 50;
#X obj 202 62 s m50;
#X obj 202 6 loadbang;
#X obj 29 146 vu 15 120 empty empty -1 -8 0 10 -66577 -1 1 0;
#X obj 29 117 snapshot~;
#X obj 30 94 r m50;
#X obj 109 146 vu 15 120 empty empty -1 -8 0 10 -66577 -1 1 0;
#X obj 109 117 snapshot~;
#X obj 110 94 r m50;
#X obj 189 146 vu 15 120 empty empty -1 -8 0 10 -66577 -1 1 0;
#X obj 189 117 snapshot~;
#X obj 190 94 r m50;
#X obj 259 146 vu 15 120 empty empty -1 -8 0 10 -66577 -1 1 0;
#X obj 259 117 snapshot~;
#X obj 260 94 r m50;
#X obj 339 146 vu 15 120 empty empty -1 -8 0 10 -66577 -1 1 0;
#X obj 339 117 snapshot~;
#X obj 340 94 r m50;
#X obj 419 146 vu 15 120 empty empty -1 -8 0 10 -66577 -1 1 0;
#X obj 419 117 snapshot~;
#X obj 420 94 r m50;
#X obj 479 146 vu 15 120 empty empty -1 -8 0 10 -66577 -1 1 0;
#X obj 479 117 snapshot~;
#X obj 480 94 r m50;
#X obj 559 146 vu 15 120 empty empty -1 -8 0 10 -66577 -1 1 0;
#X obj 559 117 snapshot~;
#X obj 560 94 r m50;
#X obj 639 146 vu 15 120 empty empty -1 -8 0 10 -66577 -1 1 0;
#X obj 639 117 snapshot~;
#X obj 640 94 r m50;
#X obj 709 146 vu 15 120 empty empty -1 -8 0 10 -66577 -1 1 0;
#X obj 709 117 snapshot~;
#X obj 710 94 r m50;
#X obj 789 146 vu 15 120 empty empty -1 -8 0 10 -66577 -1 1 0;
#X obj 789 117 snapshot~;
#X obj 790 94 r m50;
#X obj 869 146 vu 15 120 empty empty -1 -8 0 10 -66577 -1 1 0;
#X obj 869 117 snapshot~;
#X obj 870 94 r m50;
#X obj 358 14 adc~ 1 2 3 4 5 6 7 8 9 10 11 12;
#X obj 265 20 bng 15 250 50 0 empty empty empty 17 7 0 10 -262144 -1
-1;
#X obj 65 1044 vu 15 120 empty empty -1 -8 0 10 -66577 -1 1 0;
#X obj 65 1008 snapshot~;
#X obj 92 976 r m50;
#X obj 223 960 dac~;
#X obj 224 920 *~, f 2;
#X obj 220 834 +~;
#X obj 217 1015 snapshot~;
#X floatatom 214 888 5 0 0 0 - - -, f 5;
#X obj 244 983 r m50;
#X obj 380 960 dac~;
#X obj 381 920 *~, f 2;
#X obj 377 834 +~;
#X obj 374 1015 snapshot~;
#X floatatom 371 888 5 0 0 0 - - -, f 5;
#X obj 401 983 r m50;
#X obj 527 964 dac~;
#X obj 528 924 *~, f 2;
#X obj 524 838 +~;
#X obj 521 1019 snapshot~;
#X floatatom 518 892 5 0 0 0 - - -, f 5;
#X obj 548 987 r m50;
#X obj 690 962 dac~;
#X obj 691 922 *~, f 2;
#X obj 687 836 +~;
#X obj 684 1017 snapshot~;
#X floatatom 681 890 5 0 0 0 - - -, f 5;
#X obj 711 985 r m50;
#X obj 839 958 dac~;
#X floatatom 473 767 5 0 0 0 - - -, f 5;
#X obj 473 788 / 100;
#X obj 840 918 *~, f 2;
#X obj 836 832 +~;
#X obj 833 1013 snapshot~;
#X floatatom 830 886 5 0 0 0 - - -, f 5;
#X obj 860 981 r m50;
#X obj 73 1327 dac~;
#X obj 74 1287 *~, f 2;
#X obj 70 1201 +~;
#X obj 67 1382 snapshot~;
#X floatatom 64 1255 5 0 0 0 - - -, f 5;
#X obj 94 1350 r m50;
#X obj 207 1326 dac~;
#X obj 208 1286 *~, f 2;
#X obj 204 1200 +~;
#X obj 201 1381 snapshot~;
#X floatatom 198 1254 5 0 0 0 - - -, f 5;
#X obj 228 1349 r m50;
#X obj 372 1327 dac~;
#X obj 373 1287 *~, f 2;
#X obj 369 1201 +~;
#X obj 366 1382 snapshot~;
#X floatatom 363 1255 5 0 0 0 - - -, f 5;
#X obj 393 1350 r m50;
#X obj 522 1326 dac~;
#X obj 523 1286 *~, f 2;
#X obj 519 1200 +~;
#X obj 516 1381 snapshot~;
#X floatatom 513 1254 5 0 0 0 - - -, f 5;
#X obj 543 1349 r m50;
#X obj 689 1323 dac~;
#X obj 690 1283 *~, f 2;
#X obj 686 1197 +~;
#X obj 683 1378 snapshot~;
#X floatatom 680 1251 5 0 0 0 - - -, f 5;
#X obj 710 1346 r m50;
#X obj 852 1324 dac~;
#X obj 853 1284 *~, f 2;
#X obj 849 1198 +~;
#X obj 846 1379 snapshot~;
#X floatatom 843 1252 5 0 0 0 - - -, f 5;
#X obj 873 1347 r m50;
#X text 509 766 GAIN;
#X obj 68 800 r~ sig01;
#X obj 287 42 s~ sig01;
#X obj 287 62 s~ sig02;
#X obj 347 42 s~ sig03;
#X obj 347 62 s~ sig04;
#X obj 407 42 s~ sig05;
#X obj 407 62 s~ sig06;
#X obj 467 42 s~ sig07;
#X obj 467 62 s~ sig08;
#X obj 527 42 s~ sig09;
#X obj 527 62 s~ sig10;
#X obj 587 42 s~ sig11;
#X obj 587 62 s~ sig12;
#X obj 219 806 r~ sig02;
#X obj 374 809 r~ sig03;
#X obj 522 806 r~ sig04;
#X obj 682 810 r~ sig05;
#X obj 833 809 r~ sig06;
#X obj 67 1176 r~ sig07;
#X obj 209 1172 r~ sig08;
#X obj 369 1178 r~ sig09;
#X obj 519 1177 r~ sig10;
#X obj 687 1174 r~ sig11;
#X obj 845 1174 r~ sig12;
#X obj 214 866 r amp02;
#X obj 371 866 r amp03;
#X obj 519 870 r amp04;
#X obj 681 868 r amp05;
#X obj 830 864 r amp06;
#X obj 64 1233 r amp07;
#X obj 198 1232 r amp08;
#X obj 363 1233 r amp09;
#X obj 513 1232 r amp10;
#X obj 680 1229 r amp11;
#X obj 844 1230 r amp12;
#X text 348 365 ============= MODE SELEKTOR =============;
#X text 346 741 ============= VOLUME MULTIPLIER =============;
#N canvas -387 52 1484 1005 SineAmps 1;
#X msg 56 40 \; amplitudes 0 0.0174524 0.0348995 0.052336 0.0697565
0.0871557 0.104528 0.121869 0.139173 0.156434 0.173648 0.190809 0.207912
0.224951 0.241922 0.258819 0.275637 0.292372 0.309017 0.325568 0.34202
0.358368 0.374607 0.390731 0.406737 0.422618 0.438371 0.45399 0.469472
0.48481 0.5 0.515038 0.529919 0.544639 0.559193 0.573576 0.587785 0.601815
0.615662 0.62932 0.642788 0.656059 0.669131 0.681998 0.694658 0.707107
0.71934 0.731354 0.743145 0.75471 0.766044 0.777146 0.788011 0.798635
0.809017 0.819152 0.829038 0.838671 0.848048 0.857167 0.866025 0.87462
0.882948 0.891007 0.898794 0.906308 0.913545 0.920505 0.927184 0.93358
0.939693 0.945519 0.951057 0.956305 0.961262 0.965926 0.970296 0.97437
0.978148 0.981627 0.984808 0.987688 0.990268 0.992546 0.994522 0.996195
0.997564 0.99863 0.999391 0.999848 1 0.999848 0.999391 0.99863 0.997564
0.996195 0.994522 0.992546 0.990268 0.987688 0.984808 0.981627 0.978148
0.97437 0.970296 0.965926 0.961262 0.956305 0.951057 0.945519 0.939693
0.93358 0.927184 0.920505 0.913545 0.906308 0.898794 0.891007 0.882948
0.87462 0.866025 0.857167 0.848048 0.838671 0.829038 0.819152 0.809017
0.798635 0.788011 0.777146 0.766044 0.75471 0.743145 0.731354 0.71934
0.707107 0.694658 0.681998 0.669131 0.656059 0.642788 0.62932 0.615662
0.601815 0.587785 0.573576 0.559193 0.544639 0.529919 0.515038 0.5
0.48481 0.469472 0.45399 0.438371 0.422618 0.406737 0.390731 0.374607
0.358368 0.34202 0.325568 0.309017 0.292372 0.275637 0.258819 0.241922
0.224951 0.207912 0.190809 0.173648 0.156434 0.139173 0.121869 0.104528
0.0871557 0.0697565 0.052336 0.0348995 0.0174524 1.22465e-16 -0.0174524
-0.0348995 -0.052336 -0.0697565 -0.0871557 -0.104528 -0.121869 -0.139173
-0.156434 -0.173648 -0.190809 -0.207912 -0.224951 -0.241922 -0.258819
-0.275637 -0.292372 -0.309017 -0.325568 -0.34202 -0.358368 -0.374607
-0.390731 -0.406737 -0.422618 -0.438371 -0.45399 -0.469472 -0.48481
-0.5 -0.515038 -0.529919 -0.544639 -0.559193 -0.573576 -0.587785 -0.601815
-0.615662 -0.62932 -0.642788 -0.656059 -0.669131 -0.681998 -0.694658
-0.707107 -0.71934 -0.731354 -0.743145 -0.75471 -0.766044 -0.777146
-0.788011 -0.798635 -0.809017 -0.819152 -0.829038 -0.838671 -0.848048
-0.857167 -0.866025 -0.87462 -0.882948 -0.891007 -0.898794 -0.906308
-0.913545 -0.920505 -0.927184 -0.93358 -0.939693 -0.945519 -0.951057
-0.956305 -0.961262 -0.965926 -0.970296 -0.97437 -0.978148 -0.981627
-0.984808 -0.987688 -0.990268 -0.992546 -0.994522 -0.996195 -0.997564
-0.99863 -0.999391 -0.999848 -1 -0.999848 -0.999391 -0.99863 -0.997564
-0.996195 -0.994522 -0.992546 -0.990268 -0.987688 -0.984808 -0.981627
-0.978148 -0.97437 -0.970296 -0.965926 -0.961262 -0.956305 -0.951057
-0.945519 -0.939693 -0.93358 -0.927184 -0.920505 -0.913545 -0.906308
-0.898794 -0.891007 -0.882948 -0.87462 -0.866025 -0.857167 -0.848048
-0.838671 -0.829038 -0.819152 -0.809017 -0.798635 -0.788011 -0.777146
-0.766044 -0.75471 -0.743145 -0.731354 -0.71934 -0.707107 -0.694658
-0.681998 -0.669131 -0.656059 -0.642788 -0.62932 -0.615662 -0.601815
-0.587785 -0.573576 -0.559193 -0.544639 -0.529919 -0.515038 -0.5 -0.48481
-0.469472 -0.45399 -0.438371 -0.422618 -0.406737 -0.390731 -0.374607
-0.358368 -0.34202 -0.325568 -0.309017 -0.292372 -0.275637 -0.258819
-0.241922 -0.224951 -0.207912 -0.190809 -0.173648 -0.156434 -0.139173
-0.121869 -0.104528 -0.0871557 -0.0697565 -0.052336 -0.0348995 -0.0174524
-2.44929e-16;
#N canvas 0 0 450 300 (subpatch) 0;
#X array amplitudes 360 float 3 black black;
#A 0 0.0174524 0.0348995 0.052336 0.0697565 0.0871557 0.104528 0.121869
0.139173 0.156434 0.173648 0.190809 0.207912 0.224951 0.241922 0.258819
0.275637 0.292372 0.309017 0.325568 0.34202 0.358368 0.374607 0.390731
0.406737 0.422618 0.438371 0.45399 0.469472 0.48481 0.5 0.515038 0.529919
0.544639 0.559193 0.573576 0.587785 0.601815 0.615662 0.62932 0.642788
0.656059 0.669131 0.681998 0.694658 0.707107 0.71934 0.731354 0.743145
0.75471 0.766044 0.777146 0.788011 0.798635 0.809017 0.819152 0.829038
0.838671 0.848048 0.857167 0.866025 0.87462 0.882948 0.891007 0.898794
0.906308 0.913545 0.920505 0.927184 0.93358 0.939693 0.945519 0.951057
0.956305 0.961262 0.965926 0.970296 0.97437 0.978148 0.981627 0.984808
0.987688 0.990268 0.992546 0.994522 0.996195 0.997564 0.99863 0.999391
0.999848 1 0.999848 0.999391 0.99863 0.997564 0.996195 0.994522 0.992546
0.990268 0.987688 0.984808 0.981627 0.978148 0.97437 0.970296 0.965926
0.961262 0.956305 0.951057 0.945519 0.939693 0.93358 0.927184 0.920505
0.913545 0.906308 0.898794 0.891007 0.882948 0.87462 0.866025 0.857167
0.848048 0.838671 0.829038 0.819152 0.809017 0.798635 0.788011 0.777146
0.766044 0.75471 0.743145 0.731354 0.71934 0.707107 0.694658 0.681998
0.669131 0.656059 0.642788 0.62932 0.615662 0.601815 0.587785 0.573576
0.559193 0.544639 0.529919 0.515038 0.5 0.48481 0.469472 0.45399 0.438371
0.422618 0.406737 0.390731 0.374607 0.358368 0.34202 0.325568 0.309017
0.292372 0.275637 0.258819 0.241922 0.224951 0.207912 0.190809 0.173648
0.156434 0.139173 0.121869 0.104528 0.0871557 0.0697565 0.052336 0.0348995
0.0174524 1.22465e-16 -0.0174524 -0.0348995 -0.052336 -0.0697565 -0.0871557
-0.104528 -0.121869 -0.139173 -0.156434 -0.173648 -0.190809 -0.207912
-0.224951 -0.241922 -0.258819 -0.275637 -0.292372 -0.309017 -0.325568
-0.34202 -0.358368 -0.374607 -0.390731 -0.406737 -0.422618 -0.438371
-0.45399 -0.469472 -0.48481 -0.5 -0.515038 -0.529919 -0.544639 -0.559193
-0.573576 -0.587785 -0.601815 -0.615662 -0.62932 -0.642788 -0.656059
-0.669131 -0.681998 -0.694658 -0.707107 -0.71934 -0.731354 -0.743145
-0.75471 -0.766044 -0.777146 -0.788011 -0.798635 -0.809017 -0.819152
-0.829038 -0.838671 -0.848048 -0.857167 -0.866025 -0.87462 -0.882948
-0.891007 -0.898794 -0.906308 -0.913545 -0.920505 -0.927184 -0.93358
-0.939693 -0.945519 -0.951057 -0.956305 -0.961262 -0.965926 -0.970296
-0.97437 -0.978148 -0.981627 -0.984808 -0.987688 -0.990268 -0.992546
-0.994522 -0.996195 -0.997564 -0.99863 -0.999391 -0.999848 -1 -0.999848
-0.999391 -0.99863 -0.997564 -0.996195 -0.994522 -0.992546 -0.990268
-0.987688 -0.984808 -0.981627 -0.978148 -0.97437 -0.970296 -0.965926
-0.961262 -0.956305 -0.951057 -0.945519 -0.939693 -0.93358 -0.927184
-0.920505 -0.913545 -0.906308 -0.898794 -0.891007 -0.882948 -0.87462
-0.866025 -0.857167 -0.848048 -0.838671 -0.829038 -0.819152 -0.809017
-0.798635 -0.788011 -0.777146 -0.766044 -0.75471 -0.743145 -0.731354
-0.71934 -0.707107 -0.694658 -0.681998 -0.669131 -0.656059 -0.642788
-0.62932 -0.615662 -0.601815 -0.587785 -0.573576 -0.559193 -0.544639
-0.529919 -0.515038 -0.5 -0.48481 -0.469472 -0.45399 -0.438371 -0.422618
-0.406737 -0.390731 -0.374607 -0.358368 -0.34202 -0.325568 -0.309017
-0.292372 -0.275637 -0.258819 -0.241922 -0.224951 -0.207912 -0.190809
-0.173648 -0.156434 -0.139173 -0.121869 -0.104528 -0.0871557 -0.0697565
-0.052336 -0.0348995 -0.0174524 -2.44929e-16;
#X coords 0 1 360 -1 200 140 1;
#X restore 471 45 graph;
#X obj 488 362 tabread amplitudes;
#X floatatom 488 384 5 0 0 0 - - -, f 5;
#X obj 848 156 int;
#X obj 883 155 + 1;
#X floatatom 848 180 5 0 0 0 - - -, f 5;
#X obj 487 293 % 360;
#X floatatom 488 321 5 0 0 0 - - -, f 5;
#X floatatom 540 297 5 0 0 0 - - -, f 5;
#X obj 627 272 +;
#X floatatom 626 299 5 0 0 0 - - -, f 5;
#X floatatom 626 299 5 0 0 0 - - -, f 5;
#X floatatom 695 299 5 0 0 0 - - -, f 5;
#X floatatom 772 301 5 0 0 0 - - -, f 5;
#X floatatom 849 299 5 0 0 0 - - -, f 5;
#X floatatom 938 305 5 0 0 0 - - -, f 5;
#X floatatom 1012 298 5 0 0 0 - - -, f 5;
#X floatatom 1084 299 5 0 0 0 - - -, f 5;
#X floatatom 1164 298 5 0 0 0 - - -, f 5;
#X floatatom 1248 300 5 0 0 0 - - -, f 5;
#X floatatom 1318 302 5 0 0 0 - - -, f 5;
#X msg 796 116 0;
#X obj 541 270 + 8;
#X obj 627 271 + 15;
#X obj 696 272 + 23;
#X obj 773 274 + 30;
#X obj 850 272 + 38;
#X obj 938 276 + 45;
#X obj 1013 271 + 52;
#X obj 1085 272 + 60;
#X obj 1165 271 + 68;
#X obj 1249 273 + 75;
#X obj 1319 275 + 82;
#X obj 540 318 % 360;
#X obj 626 320 % 360;
#X obj 695 320 % 360;
#X obj 772 322 % 360;
#X obj 850 319 % 360;
#X obj 938 326 % 360;
#X obj 1012 319 % 360;
#X obj 1084 319 % 360;
#X obj 1165 318 % 360;
#X obj 1248 321 % 360;
#X obj 1318 323 % 360;
#X floatatom 540 340 5 0 0 0 - - -, f 5;
#X floatatom 626 342 5 0 0 0 - - -, f 5;
#X floatatom 695 342 5 0 0 0 - - -, f 5;
#X floatatom 772 344 5 0 0 0 - - -, f 5;
#X floatatom 850 341 5 0 0 0 - - -, f 5;
#X floatatom 938 348 5 0 0 0 - - -, f 5;
#X floatatom 1012 341 5 0 0 0 - - -, f 5;
#X floatatom 1084 341 5 0 0 0 - - -, f 5;
#X floatatom 1165 340 5 0 0 0 - - -, f 5;
#X floatatom 1248 343 5 0 0 0 - - -, f 5;
#X floatatom 1318 345 5 0 0 0 - - -, f 5;
#X obj 540 386 tabread amplitudes;
#X floatatom 540 408 5 0 0 0 - - -, f 5;
#X obj 630 406 tabread amplitudes;
#X floatatom 630 428 5 0 0 0 - - -, f 5;
#X obj 695 364 tabread amplitudes;
#X floatatom 695 386 5 0 0 0 - - -, f 5;
#X obj 775 384 tabread amplitudes;
#X floatatom 775 406 5 0 0 0 - - -, f 5;
#X obj 849 406 tabread amplitudes;
#X floatatom 849 428 5 0 0 0 - - -, f 5;
#X obj 938 366 tabread amplitudes;
#X floatatom 938 388 5 0 0 0 - - -, f 5;
#X obj 1011 386 tabread amplitudes;
#X floatatom 1011 408 5 0 0 0 - - -, f 5;
#X obj 1082 407 tabread amplitudes;
#X floatatom 1082 429 5 0 0 0 - - -, f 5;
#X obj 1165 360 tabread amplitudes;
#X floatatom 1165 382 5 0 0 0 - - -, f 5;
#X obj 1250 381 tabread amplitudes;
#X floatatom 1250 403 5 0 0 0 - - -, f 5;
#X obj 1322 401 tabread amplitudes;
#X floatatom 1322 423 5 0 0 0 - - -, f 5;
#X obj 488 606 vsl 15 128 0.01 1 1 0 empty empty empty 1 -1 0 10 -262144
-1 -1 11081 1;
#X obj 538 606 vsl 15 128 0.01 1 1 0 empty empty empty 1 -1 0 10 -262144
-1 -1 11657 1;
#X obj 628 606 vsl 15 128 0.01 1 1 0 empty empty empty 1 -1 0 10 -262144
-1 -1 12095 1;
#X obj 698 606 vsl 15 128 0.01 1 1 0 empty empty empty 1 -1 0 10 -262144
-1 -1 12533 1;
#X obj 773 606 vsl 15 128 0.01 1 1 0 empty empty empty 1 -1 0 10 -262144
-1 -1 12519 1;
#X obj 849 606 vsl 15 128 0.01 1 1 0 empty empty empty 1 -1 0 10 -262144
-1 -1 12079 1;
#X obj 939 606 vsl 15 128 0.01 1 1 0 empty empty empty 1 -1 0 10 -262144
-1 -1 11638 1;
#X obj 1009 606 vsl 15 128 0.01 1 1 0 empty empty empty 1 -1 0 10 -262144
-1 -1 11137 1;
#X obj 1082 606 vsl 15 128 0.01 1 1 0 empty empty empty 1 -1 0 10 -262144
-1 -1 10474 1;
#X obj 1166 606 vsl 15 128 0.01 1 1 0 empty empty empty 1 -1 0 10 -262144
-1 -1 9689 1;
#X obj 1246 606 vsl 15 128 0.01 1 1 0 empty empty empty 1 -1 0 10 -262144
-1 -1 8871 1;
#X obj 1322 606 vsl 15 128 0.01 1 1 0 empty empty empty 1 -1 0 10 -262144
-1 -1 7886 1;
#X obj 488 405 abs;
#X floatatom 488 427 5 0 0 0 - - -, f 5;
#X obj 540 429 abs;
#X floatatom 540 451 5 0 0 0 - - -, f 5;
#X obj 630 449 abs;
#X floatatom 630 471 5 0 0 0 - - -, f 5;
#X obj 775 427 abs;
#X floatatom 775 449 5 0 0 0 - - -, f 5;
#X obj 849 449 abs;
#X floatatom 849 471 5 0 0 0 - - -, f 5;
#X obj 938 409 abs;
#X floatatom 938 431 5 0 0 0 - - -, f 5;
#X obj 1011 429 abs;
#X floatatom 1011 451 5 0 0 0 - - -, f 5;
#X obj 1082 450 abs;
#X floatatom 1082 472 5 0 0 0 - - -, f 5;
#X obj 1165 403 abs;
#X floatatom 1165 425 5 0 0 0 - - -, f 5;
#X obj 1250 424 abs;
#X floatatom 1250 446 5 0 0 0 - - -, f 5;
#X obj 1322 444 abs;
#X floatatom 1322 466 5 0 0 0 - - -, f 5;
#X obj 695 407 abs;
#X floatatom 695 429 5 0 0 0 - - -, f 5;
#X obj 848 127 metro 500;
#X obj 484 472 expr (1- $f1);
#X obj 540 496 expr (1- $f1);
#X obj 629 498 expr (1- $f1);
#X obj 682 450 expr (1- $f1);
#X obj 754 477 expr (1- $f1);
#X obj 847 499 expr (1- $f1);
#X obj 921 451 expr (1- $f1);
#X obj 982 477 expr (1- $f1);
#X obj 1090 494 expr (1- $f1);
#X obj 1150 445 expr (1- $f1);
#X obj 1221 470 expr (1- $f1);
#X obj 1289 497 expr (1- $f1);
#X obj 484 528 line;
#X msg 484 494 \$1 500;
#X obj 537 543 line;
#X obj 628 541 line;
#X obj 684 533 line;
#X obj 761 542 line;
#X obj 847 544 line;
#X obj 923 535 line;
#X obj 997 540 line;
#X obj 1084 542 line;
#X obj 1156 540 line;
#X obj 1228 538 line;
#X obj 1320 544 line;
#X msg 540 518 \$1 500;
#X msg 629 520 \$1 500;
#X msg 682 472 \$1 500;
#X msg 754 499 \$1 500;
#X msg 847 521 \$1 500;
#X msg 921 473 \$1 500;
#X msg 982 499 \$1 500;
#X msg 1090 516 \$1 500;
#X msg 1150 467 \$1 500;
#X msg 1221 492 \$1 500;
#X msg 1289 519 \$1 500;
#X obj 851 836 aubioquiet~;
#X obj 851 858 bng 15 250 50 0 empty empty empty 17 7 0 10 -262144
-1 -1;
#X obj 915 860 bng 15 250 50 0 empty empty empty 17 7 0 10 -262144
-1 -1;
#X obj 460 568 s sinAmp01;
#X obj 538 570 s sinAmp02;
#X obj 618 570 s sinAmp03;
#X obj 690 571 s sinAmp04;
#X obj 768 570 s sinAmp05;
#X obj 848 570 s sinAmp06;
#X obj 928 570 s sinAmp07;
#X obj 1008 570 s sinAmp08;
#X obj 1153 571 s sinAmp10;
#X obj 1223 571 s sinAmp11;
#X obj 1303 571 s sinAmp12;
#X obj 1076 570 s sinAmp09;
#X text 1102 881 it's just looping all inputs delayedly through a sine-shaped
envelope;
#X obj 781 70 loadbang;
#X obj 947 21 inlet;
#X obj 1076 85 delay;
#X msg 1081 133 20;
#X floatatom 1100 109 5 0 0 0 - - -, f 5;
#X obj 1045 173 line;
#X floatatom 1045 195 5 0 0 0 - - -, f 5;
#X obj 1037 51 t b 5000;
#X obj 1058 112 bng 15 250 50 0 empty empty empty 17 7 0 10 -262144
-1 -1;
#X obj 911 63 bng 15 250 50 0 empty empty empty 17 7 0 10 -262144 -1
-1;
#X obj 963 96 r sinAmp01;
#X floatatom 963 118 5 0 0 0 - - -, f 5;
#X msg 1006 196 200;
#X obj 859 96 tgl 15 0 empty empty empty 17 7 0 10 -262144 -1 -1 1
1;
#X obj 833 39 inlet;
#X text 1024 24 adds a 5000 ms line cross fade when mode is activated
;
#X text 1109 50 TODO: make this available for all channels! so far
only amp01...;
#X obj 1225 185 s allChanShift;
#X msg 1225 157 1;
#X msg 1264 156 0;
#X connect 2 0 3 0;
#X connect 3 0 90 0;
#X connect 4 0 5 0;
#X connect 4 0 6 0;
#X connect 5 0 4 1;
#X connect 6 0 7 0;
#X connect 6 0 23 0;
#X connect 6 0 24 0;
#X connect 6 0 25 0;
#X connect 6 0 26 0;
#X connect 6 0 27 0;
#X connect 6 0 28 0;
#X connect 6 0 29 0;
#X connect 6 0 30 0;
#X connect 6 0 31 0;
#X connect 6 0 32 0;
#X connect 6 0 33 0;
#X connect 7 0 8 0;
#X connect 8 0 2 0;
#X connect 9 0 34 0;
#X connect 10 0 11 0;
#X connect 12 0 35 0;
#X connect 13 0 36 0;
#X connect 14 0 37 0;
#X connect 15 0 38 0;
#X connect 16 0 39 0;
#X connect 17 0 40 0;
#X connect 18 0 41 0;
#X connect 19 0 42 0;
#X connect 20 0 43 0;
#X connect 21 0 44 0;
#X connect 22 0 4 0;
#X connect 23 0 9 0;
#X connect 24 0 12 0;
#X connect 25 0 13 0;
#X connect 26 0 14 0;
#X connect 27 0 15 0;
#X connect 28 0 16 0;
#X connect 29 0 17 0;
#X connect 30 0 18 0;
#X connect 31 0 19 0;
#X connect 32 0 20 0;
#X connect 33 0 21 0;
#X connect 34 0 45 0;
#X connect 35 0 46 0;
#X connect 36 0 47 0;
#X connect 37 0 48 0;
#X connect 38 0 49 0;
#X connect 39 0 50 0;
#X connect 40 0 51 0;
#X connect 41 0 52 0;
#X connect 42 0 53 0;
#X connect 43 0 54 0;
#X connect 44 0 55 0;
#X connect 45 0 56 0;
#X connect 46 0 58 0;
#X connect 47 0 60 0;
#X connect 48 0 62 0;
#X connect 49 0 64 0;
#X connect 50 0 66 0;
#X connect 51 0 68 0;
#X connect 52 0 70 0;
#X connect 53 0 72 0;
#X connect 54 0 74 0;
#X connect 55 0 76 0;
#X connect 56 0 57 0;
#X connect 57 0 92 0;
#X connect 58 0 59 0;
#X connect 59 0 94 0;
#X connect 60 0 61 0;
#X connect 61 0 112 0;
#X connect 62 0 63 0;
#X connect 63 0 96 0;
#X connect 64 0 65 0;
#X connect 65 0 98 0;
#X connect 66 0 67 0;
#X connect 67 0 100 0;
#X connect 68 0 69 0;
#X connect 69 0 102 0;
#X connect 70 0 71 0;
#X connect 71 0 104 0;
#X connect 72 0 73 0;
#X connect 73 0 106 0;
#X connect 74 0 75 0;
#X connect 75 0 108 0;
#X connect 76 0 77 0;
#X connect 77 0 110 0;
#X connect 78 0 151 0;
#X connect 79 0 151 0;
#X connect 80 0 151 0;
#X connect 81 0 151 0;
#X connect 82 0 151 0;
#X connect 83 0 151 0;
#X connect 84 0 151 0;
#X connect 85 0 151 0;
#X connect 86 0 151 0;
#X connect 87 0 151 0;
#X connect 88 0 151 0;
#X connect 89 0 151 0;
#X connect 90 0 91 0;
#X connect 91 0 115 0;
#X connect 92 0 93 0;
#X connect 93 0 116 0;
#X connect 94 0 95 0;
#X connect 95 0 117 0;
#X connect 96 0 97 0;
#X connect 97 0 119 0;
#X connect 98 0 99 0;
#X connect 99 0 120 0;
#X connect 100 0 101 0;
#X connect 101 0 121 0;
#X connect 102 0 103 0;
#X connect 103 0 122 0;
#X connect 104 0 105 0;
#X connect 105 0 123 0;
#X connect 106 0 107 0;
#X connect 107 0 124 0;
#X connect 108 0 109 0;
#X connect 109 0 125 0;
#X connect 110 0 111 0;
#X connect 111 0 126 0;
#X connect 112 0 113 0;
#X connect 113 0 118 0;
#X connect 114 0 4 0;
#X connect 115 0 128 0;
#X connect 115 0 154 0;
#X connect 116 0 140 0;
#X connect 117 0 141 0;
#X connect 118 0 142 0;
#X connect 119 0 143 0;
#X connect 120 0 144 0;
#X connect 121 0 145 0;
#X connect 122 0 146 0;
#X connect 123 0 147 0;
#X connect 124 0 148 0;
#X connect 125 0 149 0;
#X connect 126 0 150 0;
#X connect 127 0 78 0;
#X connect 128 0 127 0;
#X connect 129 0 79 0;
#X connect 129 0 155 0;
#X connect 130 0 80 0;
#X connect 130 0 156 0;
#X connect 131 0 81 0;
#X connect 131 0 157 0;
#X connect 132 0 82 0;
#X connect 132 0 158 0;
#X connect 133 0 83 0;
#X connect 133 0 159 0;
#X connect 134 0 84 0;
#X connect 134 0 160 0;
#X connect 135 0 85 0;
#X connect 135 0 161 0;
#X connect 136 0 86 0;
#X connect 136 0 165 0;
#X connect 137 0 87 0;
#X connect 137 0 162 0;
#X connect 138 0 88 0;
#X connect 138 0 163 0;
#X connect 139 0 89 0;
#X connect 139 0 164 0;
#X connect 140 0 129 0;
#X connect 141 0 130 0;
#X connect 142 0 131 0;
#X connect 143 0 132 0;
#X connect 144 0 133 0;
#X connect 145 0 134 0;
#X connect 146 0 135 0;
#X connect 147 0 136 0;
#X connect 148 0 137 0;
#X connect 149 0 138 0;
#X connect 150 0 139 0;
#X connect 151 0 152 0;
#X connect 151 1 153 0;
#X connect 167 0 22 0;
#X connect 168 0 176 0;
#X connect 168 0 185 0;
#X connect 168 0 174 0;
#X connect 169 0 170 0;
#X connect 169 0 171 0;
#X connect 169 0 175 0;
#X connect 169 0 180 0;
#X connect 170 0 172 1;
#X connect 172 0 173 0;
#X connect 174 0 169 0;
#X connect 174 0 172 0;
#X connect 174 0 178 0;
#X connect 174 1 169 1;
#X connect 174 1 172 1;
#X connect 177 0 178 0;
#X connect 178 0 172 0;
#X connect 179 0 172 0;
#X connect 180 0 114 0;
#X connect 181 0 180 0;
#X connect 185 0 184 0;
#X connect 186 0 184 0;
#X restore 114 706 pd SineAmps;
#X obj 202 576 random 5;
#X floatatom 202 598 5 0 0 0 - - -, f 5;
#X obj 183 459 bng 36 250 50 0 empty empty empty 17 7 0 10 -262144
-1 -1;
#X msg 519 413 seed \$1;
#X symbolatom 519 435 10 0 0 0 - - -, f 10;
#X text 578 413 TODO: test seeds;
#X obj 123 1039 vsl 15 128 0 1 0 0 empty empty empty 0 -9 0 10 -262144
-1 -1 7133 1;
#X obj 262 1036 vsl 15 128 0 1 0 0 empty empty empty 0 -9 0 10 -262144
-1 -1 8700 1;
#X obj 409 1037 vsl 15 128 0 1 0 0 empty empty empty 0 -9 0 10 -262144
-1 -1 10199 1;
#X obj 559 1038 vsl 15 128 0 1 0 0 empty empty empty 0 -9 0 10 -262144
-1 -1 11956 1;
#X obj 724 1039 vsl 15 128 0 1 0 0 empty empty empty 0 -9 0 10 -262144
-1 -1 11894 1;
#X obj 877 1036 vsl 15 128 0 1 0 0 empty empty empty 0 -9 0 10 -262144
-1 -1 10138 1;
#X obj 106 1413 vsl 15 128 0 1 0 0 empty empty empty 0 -9 0 10 -262144
-1 -1 8641 1;
#X obj 245 1410 vsl 15 128 0 1 0 0 empty empty empty 0 -9 0 10 -262144
-1 -1 7205 1;
#X obj 392 1411 vsl 15 128 0 1 0 0 empty empty empty 0 -9 0 10 -262144
-1 -1 5665 1;
#X obj 542 1412 vsl 15 128 0 1 0 0 empty empty empty 0 -9 0 10 -262144
-1 -1 4262 1;
#X obj 707 1413 vsl 15 128 0 1 0 0 empty empty empty 0 -9 0 10 -262144
-1 -1 3168 1;
#X obj 860 1410 vsl 15 128 0 1 0 0 empty empty empty 0 -9 0 10 -262144
-1 -1 2216 1;
#N canvas 758 446 450 300 tests 0;
#X obj 30 111 *~ 0.1;
#X obj 26 153 dac~;
#X floatatom 95 70 5 0 0 0 - - -, f 5;
#X obj 95 105 / 100;
#X obj 24 38 osc~ 440;
#X connect 2 0 3 0;
#X connect 3 0 0 1;
#X connect 4 0 0 0;
#X restore 11 48 pd tests;
#X floatatom 86 886 5 0 0 0 - - -, f 5;
#X msg 104 496 1;
#X msg 70 494 2;
#X msg 39 494 3;
#X msg 9 494 4;
#X obj 204 630 sel 1 2 3 4 5;
#X obj 224 672 bng 15 250 50 0 empty empty empty 17 7 0 10 -262144
-1 -1;
#X obj 234 682 bng 15 250 50 0 empty empty empty 17 7 0 10 -262144
-1 -1;
#X obj 244 692 bng 15 250 50 0 empty empty empty 17 7 0 10 -262144
-1 -1;
#X obj 272 704 bng 15 250 50 0 empty empty empty 17 7 0 10 -262144
-1 -1;
#X obj 175 549 t b 0;
#X obj 21 421 bng 16 250 50 0 empty empty empty 17 7 0 10 -262144 -1
-1;
#X obj 21 442 t b 0;
#N canvas 122 103 804 868 twoChannel 1;
#X obj 316 213 ==;
#X obj 317 263 sel 1;
#X floatatom 376 319 5 0 0 0 - - -, f 5;
#X floatatom 360 180 5 0 0 0 - - -, f 5;
#X floatatom 257 181 5 0 0 0 - - -, f 5;
#X floatatom 271 247 5 0 0 0 - - -, f 5;
#X obj 317 285 bng 15 250 50 0 empty empty empty 17 7 0 10 -262144
-1 -1;
#X obj 271 268 bng 15 250 50 0 empty empty empty 17 7 0 10 -262144
-1 -1;
#X obj 307 86 bng 15 250 50 0 empty empty empty 17 7 0 10 -262144 -1
-1;
#X obj 295 336 t b b;
#X obj 257 159 random 11;
#X obj 360 158 random 11;
#X text 357 211 if both numbers are equal \, generate a new one on
the right;
#X obj 241 484 sel 0 1 2 3 4 5 6 7 8 9 10 11;
#X obj 240 526 bng 15 250 50 0 empty empty empty 17 7 0 10 -262144
-1 -1;
#X obj 250 536 bng 15 250 50 0 empty empty empty 17 7 0 10 -262144
-1 -1;
#X obj 260 546 bng 15 250 50 0 empty empty empty 17 7 0 10 -262144
-1 -1;
#X obj 270 556 bng 15 250 50 0 empty empty empty 17 7 0 10 -262144
-1 -1;
#X obj 280 566 bng 15 250 50 0 empty empty empty 17 7 0 10 -262144
-1 -1;
#X obj 290 576 bng 15 250 50 0 empty empty empty 17 7 0 10 -262144
-1 -1;
#X obj 300 586 bng 15 250 50 0 empty empty empty 17 7 0 10 -262144
-1 -1;
#X obj 310 596 bng 15 250 50 0 empty empty empty 17 7 0 10 -262144
-1 -1;
#X obj 320 606 bng 15 250 50 0 empty empty empty 17 7 0 10 -262144
-1 -1;
#X obj 330 616 bng 15 250 50 0 empty empty empty 17 7 0 10 -262144
-1 -1;
#X obj 340 626 bng 15 250 50 0 empty empty empty 17 7 0 10 -262144
-1 -1;
#X obj 350 636 bng 15 250 50 0 empty empty empty 17 7 0 10 -262144
-1 -1;
#X obj 306 61 inlet;
#X msg 71 577 1 5000;
#X obj 71 597 line;
#X obj 71 619 s 2ChAmp01;
#X msg 71 647 1 5000;
#X obj 71 667 line;
#X obj 71 689 s 2ChAmp02;
#X msg 71 717 1 5000;
#X obj 71 737 line;
#X msg 215 629 1 5000;
#X obj 215 649 line;
#X msg 215 699 1 5000;
#X obj 215 719 line;
#X msg 215 769 1 5000;
#X obj 215 789 line;
#X msg 342 676 1 5000;
#X obj 342 696 line;
#X msg 342 746 1 5000;
#X obj 342 766 line;
#X msg 342 816 1 5000;
#X obj 342 836 line;
#X msg 489 694 1 5000;
#X obj 489 714 line;
#X msg 489 764 1 5000;
#X obj 489 784 line;
#X msg 489 834 1 5000;
#X obj 489 854 line;
#X obj 72 759 s 2ChAmp03;
#X obj 215 671 s 2ChAmp04;
#X obj 215 741 s 2ChAmp05;
#X obj 214 811 s 2ChAmp06;
#X obj 342 718 s 2ChAmp07;
#X obj 342 788 s 2ChAmp08;
#X obj 342 858 s 2ChAmp09;
#X obj 489 736 s 2ChAmp10;
#X obj 489 806 s 2ChAmp11;
#X obj 489 876 s 2ChAmp12;
#X obj 642 356 sel 0 1 2 3 4 5 6 7 8 9 10 11;
#X obj 641 398 bng 15 250 50 0 empty empty empty 17 7 0 10 -262144
-1 -1;
#X obj 651 408 bng 15 250 50 0 empty empty empty 17 7 0 10 -262144
-1 -1;
#X obj 661 418 bng 15 250 50 0 empty empty empty 17 7 0 10 -262144
-1 -1;
#X obj 671 428 bng 15 250 50 0 empty empty empty 17 7 0 10 -262144
-1 -1;
#X obj 681 438 bng 15 250 50 0 empty empty empty 17 7 0 10 -262144
-1 -1;
#X obj 691 448 bng 15 250 50 0 empty empty empty 17 7 0 10 -262144
-1 -1;
#X obj 701 458 bng 15 250 50 0 empty empty empty 17 7 0 10 -262144
-1 -1;
#X obj 711 468 bng 15 250 50 0 empty empty empty 17 7 0 10 -262144
-1 -1;
#X obj 721 478 bng 15 250 50 0 empty empty empty 17 7 0 10 -262144
-1 -1;
#X obj 731 488 bng 15 250 50 0 empty empty empty 17 7 0 10 -262144
-1 -1;
#X obj 741 498 bng 15 250 50 0 empty empty empty 17 7 0 10 -262144
-1 -1;
#X obj 751 508 bng 15 250 50 0 empty empty empty 17 7 0 10 -262144
-1 -1;
#X msg 507 441 1 5000;
#X obj 507 461 line;
#X obj 507 483 s 2ChAmp01;
#X msg 507 511 1 5000;
#X obj 507 531 line;
#X obj 507 553 s 2ChAmp02;
#X msg 507 581 1 5000;
#X obj 507 601 line;
#X msg 587 471 1 5000;
#X obj 587 491 line;
#X msg 587 541 1 5000;
#X obj 587 561 line;
#X msg 587 611 1 5000;
#X obj 587 631 line;
#X msg 667 511 1 5000;
#X obj 667 531 line;
#X msg 667 581 1 5000;
#X obj 667 601 line;
#X msg 667 651 1 5000;
#X obj 667 671 line;
#X msg 747 541 1 5000;
#X obj 747 561 line;
#X msg 747 611 1 5000;
#X obj 747 631 line;
#X msg 747 681 1 5000;
#X obj 747 701 line;
#X obj 508 623 s 2ChAmp03;
#X obj 587 513 s 2ChAmp04;
#X obj 587 583 s 2ChAmp05;
#X obj 586 653 s 2ChAmp06;
#X obj 667 553 s 2ChAmp07;
#X obj 667 623 s 2ChAmp08;
#X obj 667 693 s 2ChAmp09;
#X obj 747 583 s 2ChAmp10;
#X obj 747 653 s 2ChAmp11;
#X obj 747 723 s 2ChAmp12;
#X text 634 313 TODO: all others have to go to zero!;
#X text 333 926 TODO: maybe sink back to 0 and shift two others up
constantly?;
#X obj 70 1009 s chan01shift;
#X msg 37 958 1;
#X msg 82 983 0;
#X obj 82 961 delay;
#X obj 46 928 t b 5000;
#X obj 41 899 bng 15 250 50 0 empty empty empty 17 7 0 10 -262144 -1
-1;
#X obj 50 169 i;
#X obj 81 169 + 1;
#X floatatom 50 191 5 0 0 0 - - -, f 5;
#X floatatom 159 19 5 0 0 0 - - -, f 5;
#X obj 21 277 sel 0 1 2 3 4 5 6 7 8 9 10 11;
#X obj 21 299 bng 15 250 50 0 empty empty empty 17 7 0 10 -262144 -1
-1;
#X obj 89 235 sel;
#X obj 89 257 bng 15 250 50 0 empty empty empty 17 7 0 10 -262144 -1
-1;
#X floatatom 21 252 5 0 0 0 - - -, f 5;
#X obj 31 309 bng 15 250 50 0 empty empty empty 17 7 0 10 -262144 -1
-1;
#X obj 41 319 bng 15 250 50 0 empty empty empty 17 7 0 10 -262144 -1
-1;
#X obj 51 329 bng 15 250 50 0 empty empty empty 17 7 0 10 -262144 -1
-1;
#X obj 61 339 bng 15 250 50 0 empty empty empty 17 7 0 10 -262144 -1
-1;
#X obj 71 349 bng 15 250 50 0 empty empty empty 17 7 0 10 -262144 -1
-1;
#X obj 81 359 bng 15 250 50 0 empty empty empty 17 7 0 10 -262144 -1
-1;
#X obj 91 369 bng 15 250 50 0 empty empty empty 17 7 0 10 -262144 -1
-1;
#X obj 101 379 bng 15 250 50 0 empty empty empty 17 7 0 10 -262144
-1 -1;
#X obj 111 389 bng 15 250 50 0 empty empty empty 17 7 0 10 -262144
-1 -1;
#X obj 121 399 bng 15 250 50 0 empty empty empty 17 7 0 10 -262144
-1 -1;
#X obj 131 409 bng 15 250 50 0 empty empty empty 17 7 0 10 -262144
-1 -1;
#X obj 50 212 % 12;
#X obj 182 147 ||;
#X obj 157 200 ==;
#X obj 118 57 ==;
#X floatatom 118 79 5 0 0 0 - - -, f 5;
#X obj 118 100 ==;
#X msg 158 78 1;
#X floatatom 118 122 5 0 0 0 - - -, f 5;
#X obj 200 52 ==;
#X floatatom 200 74 5 0 0 0 - - -, f 5;
#X obj 200 95 ==;
#X msg 240 73 1;
#X floatatom 200 117 5 0 0 0 - - -, f 5;
#X floatatom 182 169 5 0 0 0 - - -, f 5;
#X msg 193 190 1;
#X floatatom 157 222 5 0 0 0 - - -, f 5;
#X obj 10 522 spigot;
#X msg 11 591 0 5000;
#X obj 49 120 tgl 15 0 empty empty empty 17 7 0 10 -262144 -1 -1 0
1;
#X floatatom 50 234 5 0 0 0 - - -, f 5;
#X floatatom 7 203 5 0 0 0 - - -, f 5;
#X obj 7 175 == 11;
#X obj 6 226 sel 1;
#X obj 13 645 spigot;
#X msg 13 664 0 5000;
#X obj 11 712 spigot;
#X msg 11 731 0 5000;
#X obj 160 626 spigot;
#X msg 160 645 0 5000;
#X obj 162 699 spigot;
#X msg 162 718 0 5000;
#X obj 160 766 spigot;
#X msg 160 785 0 5000;
#X obj 290 672 spigot;
#X msg 290 691 0 5000;
#X obj 292 745 spigot;
#X msg 292 764 0 5000;
#X obj 290 812 spigot;
#X msg 290 831 0 5000;
#X obj 432 691 spigot;
#X msg 432 710 0 5000;
#X obj 434 764 spigot;
#X msg 434 783 0 5000;
#X obj 432 831 spigot;
#X msg 432 850 0 5000;
#X obj 308 121 t b b b;
#X obj 10 544 bng 15 250 50 0 empty empty empty 17 7 0 10 -262144 -1
-1;
#X obj 49 147 metro 500;
#X connect 0 0 1 0;
#X connect 0 0 5 0;
#X connect 1 0 6 0;
#X connect 1 1 2 0;
#X connect 3 0 63 0;
#X connect 3 0 148 1;
#X connect 4 0 13 0;
#X connect 4 0 126 1;
#X connect 4 0 143 1;
#X connect 5 0 7 0;
#X connect 6 0 9 0;
#X connect 8 0 185 0;
#X connect 9 0 0 0;
#X connect 9 1 11 0;
#X connect 10 0 0 0;
#X connect 10 0 4 0;
#X connect 11 0 3 0;
#X connect 11 0 0 1;
#X connect 13 0 14 0;
#X connect 13 1 15 0;
#X connect 13 2 16 0;
#X connect 13 3 17 0;
#X connect 13 4 18 0;
#X connect 13 5 19 0;
#X connect 13 6 20 0;
#X connect 13 7 21 0;
#X connect 13 8 22 0;
#X connect 13 9 23 0;
#X connect 13 10 24 0;
#X connect 13 11 25 0;
#X connect 14 0 27 0;
#X connect 15 0 30 0;
#X connect 16 0 33 0;
#X connect 17 0 35 0;
#X connect 18 0 37 0;
#X connect 19 0 39 0;
#X connect 20 0 41 0;
#X connect 21 0 43 0;
#X connect 22 0 45 0;
#X connect 23 0 47 0;
#X connect 24 0 49 0;
#X connect 25 0 51 0;
#X connect 26 0 8 0;
#X connect 27 0 28 0;
#X connect 28 0 29 0;
#X connect 30 0 31 0;
#X connect 31 0 32 0;
#X connect 33 0 34 0;
#X connect 34 0 53 0;
#X connect 35 0 36 0;
#X connect 36 0 54 0;
#X connect 37 0 38 0;
#X connect 38 0 55 0;
#X connect 39 0 40 0;
#X connect 40 0 56 0;
#X connect 41 0 42 0;
#X connect 42 0 57 0;
#X connect 43 0 44 0;
#X connect 44 0 58 0;
#X connect 45 0 46 0;
#X connect 46 0 59 0;
#X connect 47 0 48 0;
#X connect 48 0 60 0;
#X connect 49 0 50 0;
#X connect 50 0 61 0;
#X connect 51 0 52 0;
#X connect 52 0 62 0;
#X connect 63 0 64 0;
#X connect 63 1 65 0;
#X connect 63 2 66 0;
#X connect 63 3 67 0;
#X connect 63 4 68 0;
#X connect 63 5 69 0;
#X connect 63 6 70 0;
#X connect 63 7 71 0;
#X connect 63 8 72 0;
#X connect 63 9 73 0;
#X connect 63 10 74 0;
#X connect 63 11 75 0;
#X connect 64 0 76 0;
#X connect 65 0 79 0;
#X connect 66 0 82 0;
#X connect 67 0 84 0;
#X connect 68 0 86 0;
#X connect 69 0 88 0;
#X connect 70 0 90 0;
#X connect 71 0 92 0;
#X connect 72 0 94 0;
#X connect 73 0 96 0;
#X connect 74 0 98 0;
#X connect 75 0 100 0;
#X connect 76 0 77 0;
#X connect 77 0 78 0;
#X connect 79 0 80 0;
#X connect 80 0 81 0;
#X connect 82 0 83 0;
#X connect 83 0 102 0;
#X connect 84 0 85 0;
#X connect 85 0 103 0;
#X connect 86 0 87 0;
#X connect 87 0 104 0;
#X connect 88 0 89 0;
#X connect 89 0 105 0;
#X connect 90 0 91 0;
#X connect 91 0 106 0;
#X connect 92 0 93 0;
#X connect 93 0 107 0;
#X connect 94 0 95 0;
#X connect 95 0 108 0;
#X connect 96 0 97 0;
#X connect 97 0 109 0;
#X connect 98 0 99 0;
#X connect 99 0 110 0;
#X connect 100 0 101 0;
#X connect 101 0 111 0;
#X connect 115 0 114 0;
#X connect 116 0 114 0;
#X connect 117 0 116 0;
#X connect 118 0 115 0;
#X connect 118 0 117 0;
#X connect 118 1 117 1;
#X connect 119 0 118 0;
#X connect 120 0 121 0;
#X connect 120 0 122 0;
#X connect 121 0 120 1;
#X connect 122 0 140 0;
#X connect 123 0 126 0;
#X connect 123 0 143 0;
#X connect 123 0 148 0;
#X connect 124 0 125 0;
#X connect 124 1 129 0;
#X connect 124 2 130 0;
#X connect 124 3 131 0;
#X connect 124 4 132 0;
#X connect 124 5 133 0;
#X connect 124 6 134 0;
#X connect 124 7 135 0;
#X connect 124 8 136 0;
#X connect 124 9 137 0;
#X connect 124 10 138 0;
#X connect 124 11 139 0;
#X connect 125 0 156 0;
#X connect 126 0 127 0;
#X connect 126 1 128 0;
#X connect 128 0 124 0;
#X connect 129 0 163 0;
#X connect 130 0 165 0;
#X connect 131 0 167 0;
#X connect 132 0 169 0;
#X connect 133 0 171 0;
#X connect 134 0 173 0;
#X connect 135 0 175 0;
#X connect 136 0 177 0;
#X connect 137 0 179 0;
#X connect 138 0 181 0;
#X connect 139 0 183 0;
#X connect 140 0 123 0;
#X connect 140 0 159 0;
#X connect 140 0 161 0;
#X connect 141 0 153 0;
#X connect 142 0 155 0;
#X connect 143 0 144 0;
#X connect 144 0 145 0;
#X connect 145 0 147 0;
#X connect 146 0 145 1;
#X connect 147 0 141 0;
#X connect 148 0 149 0;
#X connect 149 0 150 0;
#X connect 150 0 152 0;
#X connect 151 0 150 1;
#X connect 152 0 141 1;
#X connect 153 0 142 0;
#X connect 154 0 142 1;
#X connect 155 0 156 1;
#X connect 155 0 163 1;
#X connect 155 0 165 1;
#X connect 155 0 167 1;
#X connect 155 0 171 1;
#X connect 155 0 183 1;
#X connect 155 0 181 1;
#X connect 155 0 179 1;
#X connect 155 0 173 1;
#X connect 155 0 175 1;
#X connect 155 0 177 1;
#X connect 155 0 169 1;
#X connect 156 0 157 0;
#X connect 156 0 186 0;
#X connect 157 0 28 0;
#X connect 158 0 187 0;
#X connect 160 0 162 0;
#X connect 161 0 160 0;
#X connect 162 0 158 0;
#X connect 163 0 164 0;
#X connect 164 0 31 0;
#X connect 165 0 166 0;
#X connect 166 0 34 0;
#X connect 167 0 168 0;
#X connect 168 0 36 0;
#X connect 169 0 170 0;
#X connect 170 0 38 0;
#X connect 171 0 172 0;
#X connect 172 0 40 0;
#X connect 173 0 174 0;
#X connect 174 0 42 0;
#X connect 175 0 176 0;
#X connect 176 0 44 0;
#X connect 177 0 178 0;
#X connect 178 0 46 0;
#X connect 179 0 180 0;
#X connect 180 0 48 0;
#X connect 181 0 182 0;
#X connect 182 0 50 0;
#X connect 183 0 184 0;
#X connect 184 0 52 0;
#X connect 185 0 158 0;
#X connect 185 1 10 0;
#X connect 185 2 11 0;
#X connect 187 0 120 0;
#X connect 187 0 141 0;
#X restore 194 728 pd twoChannel;
#X obj 86 864 r amp01;
#X obj 732 685 s amp01;
#X obj 722 426 r sinAmp01;
#X obj 722 446 r sinAmp02;
#X obj 722 466 r sinAmp03;
#X obj 722 486 r sinAmp04;
#X obj 792 426 r sinAmp05;
#X obj 792 446 r sinAmp06;
#X obj 792 466 r sinAmp07;
#X obj 792 486 r sinAmp08;
#X obj 863 426 r sinAmp09;
#X obj 862 446 r sinAmp10;
#X obj 862 466 r sinAmp11;
#X obj 862 486 r sinAmp12;
#X obj 722 516 r 2ChAmp01;
#X obj 722 536 r 2ChAmp02;
#X obj 722 556 r 2ChAmp03;
#X obj 722 576 r 2ChAmp04;
#X obj 791 515 r 2ChAmp05;
#X obj 792 536 r 2ChAmp06;
#X obj 792 556 r 2ChAmp07;
#X obj 792 576 r 2ChAmp08;
#X obj 863 516 r 2ChAmp09;
#X obj 862 536 r 2ChAmp10;
#X obj 862 556 r 2ChAmp11;
#X obj 862 576 r 2ChAmp12;
#X text 724 385 all mode-specific amps are routed to the major amps
;
#X obj 732 705 s amp02;
#X obj 732 725 s amp03;
#X obj 732 745 s amp04;
#X obj 802 685 s amp05;
#X obj 802 705 s amp06;
#X obj 802 725 s amp07;
#X obj 802 745 s amp08;
#X obj 872 685 s amp09;
#X obj 872 705 s amp10;
#X obj 872 725 s amp11;
#X obj 872 745 s amp12;
#X text 2 362 TODO: all modes have to provide some amp-numbers from
the beginning on \, otherwise they will all shift to zero upon first
activation;
#X text 144 430 TODO: timebased modeselector -- every 10 minutes?;
#X text 340 479 TODO: no two opposing amp shifts should be possible
at the same time! e.g. one shifting to 1 and another to 0.3 will make
the amp wiggle badly!;
#X text 370 527 -- channel-specific shift-bool?;
#X obj 124 40 metro 1000;
#X obj 124 62 s m1000;
#X obj 628 604 tgl 15 0 empty empty empty 17 7 0 10 -262144 -1 -1 1
1;
#X obj 592 675 spigot;
#X floatatom 628 648 5 0 0 0 - - -, f 5;
#X floatatom 592 697 5 0 0 0 - - -, f 5;
#X obj 679 628 r chan01shift;
#X obj 536 588 r 2ChAmp01;
#X floatatom 493 613 5 0 0 0 - - -, f 5;
#X obj 572 531 spigot;
#X obj 572 510 r sig01state;
#X obj 178 674 bng 15 250 50 0 empty empty empty 17 7 0 10 -262144
-1 -1;
#X obj 201 690 bng 15 250 50 0 empty empty empty 17 7 0 10 -262144
-1 -1;
#X obj 249 484 != 1;
#X floatatom 246 509 5 0 0 0 - - -, f 5;
#X obj 239 534 spigot;
#X obj 239 556 bng 15 250 50 0 empty empty empty 17 7 0 10 -262144
-1 -1;
#X obj 628 552 r allChanShift;
#N canvas 59 203 450 323 chan01Line 0;
#X obj 207 164 line;
#X msg 156 129 ziel;
#X msg 212 122 dur;
#X restore 676 605 pd chan01Line;
#X connect 1 0 2 0;
#X connect 1 1 3 0;
#X connect 6 0 7 0;
#X connect 6 1 8 0;
#X connect 11 0 12 0;
#X connect 11 1 13 0;
#X connect 16 0 17 0;
#X connect 16 1 18 0;
#X connect 21 0 22 0;
#X connect 21 1 23 0;
#X connect 26 0 27 0;
#X connect 26 1 28 0;
#X connect 31 0 32 0;
#X connect 31 1 33 0;
#X connect 36 0 37 0;
#X connect 36 1 38 0;
#X connect 41 0 42 0;
#X connect 41 1 43 0;
#X connect 46 0 47 0;
#X connect 46 1 48 0;
#X connect 51 0 52 0;
#X connect 51 1 53 0;
#X connect 56 0 57 0;
#X connect 56 1 58 0;
#X connect 62 0 61 1;
#X connect 62 0 106 0;
#X connect 62 0 61 0;
#X connect 63 0 62 0;
#X connect 64 0 65 0;
#X connect 66 0 64 0;
#X connect 66 0 65 0;
#X connect 66 0 290 0;
#X connect 68 0 67 0;
#X connect 69 0 68 0;
#X connect 71 0 70 0;
#X connect 72 0 71 0;
#X connect 74 0 73 0;
#X connect 75 0 74 0;
#X connect 77 0 76 0;
#X connect 78 0 77 0;
#X connect 80 0 79 0;
#X connect 81 0 80 0;
#X connect 83 0 82 0;
#X connect 84 0 83 0;
#X connect 86 0 85 0;
#X connect 87 0 86 0;
#X connect 89 0 88 0;
#X connect 90 0 89 0;
#X connect 92 0 91 0;
#X connect 93 0 92 0;
#X connect 95 0 94 0;
#X connect 96 0 95 0;
#X connect 98 0 97 0;
#X connect 99 0 98 0;
#X connect 101 0 100 0;
#X connect 102 0 101 0;
#X connect 103 0 1 0;
#X connect 103 0 68 0;
#X connect 103 0 178 0;
#X connect 103 1 6 0;
#X connect 103 1 71 0;
#X connect 103 1 179 0;
#X connect 103 2 11 0;
#X connect 103 2 16 0;
#X connect 103 2 74 0;
#X connect 103 2 180 0;
#X connect 103 3 21 0;
#X connect 103 3 77 0;
#X connect 103 3 181 0;
#X connect 103 4 26 0;
#X connect 103 4 80 0;
#X connect 103 4 182 0;
#X connect 103 5 31 0;
#X connect 103 5 83 0;
#X connect 103 5 183 0;
#X connect 103 6 36 0;
#X connect 103 6 86 0;
#X connect 103 6 184 0;
#X connect 103 7 41 0;
#X connect 103 7 89 0;
#X connect 103 7 185 0;
#X connect 103 8 46 0;
#X connect 103 8 92 0;
#X connect 103 8 186 0;
#X connect 103 9 51 0;
#X connect 103 9 95 0;
#X connect 103 9 187 0;
#X connect 103 10 56 0;
#X connect 103 10 98 0;
#X connect 103 10 188 0;
#X connect 103 11 101 0;
#X connect 103 11 189 0;
#X connect 104 0 64 0;
#X connect 104 0 290 0;
#X connect 106 0 105 0;
#X connect 107 0 106 0;
#X connect 109 0 108 1;
#X connect 109 0 111 0;
#X connect 109 0 108 0;
#X connect 110 0 109 0;
#X connect 112 0 222 0;
#X connect 113 0 111 0;
#X connect 115 0 114 1;
#X connect 115 0 117 0;
#X connect 115 0 114 0;
#X connect 116 0 115 0;
#X connect 118 0 223 0;
#X connect 119 0 117 0;
#X connect 121 0 120 1;
#X connect 121 0 123 0;
#X connect 121 0 120 0;
#X connect 122 0 121 0;
#X connect 124 0 224 0;
#X connect 125 0 123 0;
#X connect 127 0 126 1;
#X connect 127 0 129 0;
#X connect 127 0 126 0;
#X connect 128 0 127 0;
#X connect 130 0 225 0;
#X connect 131 0 129 0;
#X connect 133 0 134 0;
#X connect 134 0 136 1;
#X connect 134 0 128 1;
#X connect 134 0 142 1;
#X connect 134 0 122 1;
#X connect 134 0 116 1;
#X connect 134 0 110 1;
#X connect 134 0 63 1;
#X connect 134 0 148 1;
#X connect 134 0 154 1;
#X connect 134 0 160 1;
#X connect 134 0 166 1;
#X connect 134 0 172 1;
#X connect 135 0 132 1;
#X connect 135 0 137 0;
#X connect 135 0 132 0;
#X connect 136 0 135 0;
#X connect 138 0 226 0;
#X connect 139 0 137 0;
#X connect 141 0 140 1;
#X connect 141 0 143 0;
#X connect 141 0 140 0;
#X connect 142 0 141 0;
#X connect 144 0 227 0;
#X connect 145 0 143 0;
#X connect 147 0 146 1;
#X connect 147 0 149 0;
#X connect 147 0 146 0;
#X connect 148 0 147 0;
#X connect 150 0 228 0;
#X connect 151 0 149 0;
#X connect 153 0 152 1;
#X connect 153 0 155 0;
#X connect 153 0 152 0;
#X connect 154 0 153 0;
#X connect 156 0 229 0;
#X connect 157 0 155 0;
#X connect 159 0 158 1;
#X connect 159 0 161 0;
#X connect 159 0 158 0;
#X connect 160 0 159 0;
#X connect 162 0 230 0;
#X connect 163 0 161 0;
#X connect 165 0 164 1;
#X connect 165 0 167 0;
#X connect 165 0 164 0;
#X connect 166 0 165 0;
#X connect 168 0 231 0;
#X connect 169 0 167 0;
#X connect 171 0 170 1;
#X connect 171 0 173 0;
#X connect 171 0 170 0;
#X connect 172 0 171 0;
#X connect 174 0 232 0;
#X connect 175 0 173 0;
#X connect 177 0 63 0;
#X connect 190 0 110 0;
#X connect 195 0 142 0;
#X connect 196 0 148 0;
#X connect 197 0 154 0;
#X connect 198 0 160 0;
#X connect 199 0 166 0;
#X connect 200 0 172 0;
#X connect 201 0 109 1;
#X connect 201 0 112 0;
#X connect 202 0 115 1;
#X connect 202 0 118 0;
#X connect 203 0 121 1;
#X connect 203 0 124 0;
#X connect 204 0 127 1;
#X connect 204 0 130 0;
#X connect 205 0 135 1;
#X connect 205 0 138 0;
#X connect 206 0 141 1;
#X connect 206 0 144 0;
#X connect 207 0 147 1;
#X connect 207 0 150 0;
#X connect 208 0 153 1;
#X connect 208 0 156 0;
#X connect 209 0 159 1;
#X connect 209 0 162 0;
#X connect 210 0 165 1;
#X connect 210 0 168 0;
#X connect 211 0 171 1;
#X connect 211 0 174 0;
#X connect 215 0 216 0;
#X connect 216 0 239 0;
#X connect 217 0 305 0;
#X connect 218 0 219 0;
#X connect 234 0 221 0;
#X connect 235 0 239 0;
#X connect 236 0 239 0;
#X connect 237 0 239 0;
#X connect 238 0 239 0;
#X connect 239 0 301 0;
#X connect 239 1 302 0;
#X connect 239 2 240 0;
#X connect 239 3 241 0;
#X connect 239 4 242 0;
#X connect 239 5 243 0;
#X connect 244 0 215 0;
#X connect 244 1 214 0;
#X connect 245 0 246 0;
#X connect 246 0 235 0;
#X connect 246 1 214 0;
#X connect 248 0 234 0;
#X connect 248 0 62 1;
#X connect 250 0 249 0;
#X connect 251 0 275 0;
#X connect 252 0 276 0;
#X connect 253 0 277 0;
#X connect 254 0 278 0;
#X connect 255 0 279 0;
#X connect 256 0 280 0;
#X connect 257 0 281 0;
#X connect 258 0 282 0;
#X connect 259 0 283 0;
#X connect 260 0 284 0;
#X connect 261 0 285 0;
#X connect 262 0 249 0;
#X connect 263 0 275 0;
#X connect 264 0 276 0;
#X connect 265 0 277 0;
#X connect 266 0 278 0;
#X connect 267 0 279 0;
#X connect 268 0 280 0;
#X connect 269 0 281 0;
#X connect 270 0 282 0;
#X connect 271 0 283 0;
#X connect 272 0 284 0;
#X connect 273 0 285 0;
#X connect 290 0 291 0;
#X connect 292 0 294 0;
#X connect 292 0 303 0;
#X connect 293 0 295 0;
#X connect 294 0 293 1;
#X connect 297 0 293 0;
#X connect 297 0 298 0;
#X connect 300 0 299 0;
#X connect 301 0 214 1;
#X connect 302 0 247 0;
#X connect 303 0 304 0;
#X connect 304 0 305 1;
#X connect 305 0 306 0;
#X connect 306 0 244 0;
#X connect 307 0 292 0;
