#N canvas 983 52 937 1005 10;
#X msg 35 52 connect stream.radioangrezi.de lausch0 8000;
#X msg 51 80 connect stream.radioangrezi.de lausch1 8000;
#X obj 64 429 dac~;
#X floatatom 103 218 5 0 0 0 - - -, f 5;
#X obj 105 247 / 100;
#X obj 63 276 *~;
#X obj 157 277 *~;
#X msg 348 79 disconnect;
#X obj 147 352 vu 15 120 empty empty -1 -8 0 10 -66577 -1 1 0;
#X obj 167 306 snapshot~;
#X obj 73 301 snapshot~;
#X obj 211 185 oggamp~ 1 1 512;
#X floatatom 114 185 5 0 0 0 - - -, f 5;
#X msg 353 130 recover -1;
#X obj 29 152 oggamp~ 1 1 256;
#X connect 0 0 14 0;
#X connect 1 0 11 0;
#X connect 3 0 4 0;
#X connect 4 0 5 1;
#X connect 4 0 6 1;
#X connect 5 0 2 0;
#X connect 5 0 10 0;
#X connect 6 0 2 1;
#X connect 6 0 9 0;
#X connect 7 0 11 0;
#X connect 7 0 14 0;
#X connect 9 0 8 1;
#X connect 10 0 8 0;
#X connect 11 0 6 0;
#X connect 13 0 14 0;
#X connect 14 0 5 0;
#X connect 14 1 12 0;
