#N canvas 963 195 636 448 10;
#X obj 30 120 readsf~;
#X obj 124 152 snapshot~;
#X obj 71 226 vu 15 120 empty empty -1 -8 0 10 -66577 -1 1 0;
#X msg 102 93 1;
#X obj 191 85 bng 15 250 50 0 empty empty empty 17 7 0 10 -262144 -1
-1;
#X floatatom 31 189 5 0 0 0 - - -, f 5;
#X msg 63 52 open /home/dav/lausch/pd-server/test1.wav;
#X obj 12 325 dac~;
#X obj 124 174 vsl 15 128 -0.11 0.1 0 0 empty empty empty 0 -9 0 10
-262144 -1 -1 5901 1;
#X obj 405 166 table table;
#X obj 254 316 tabwrite~ table;
#X obj 265 275 bng 15 250 50 0 empty empty empty 17 7 0 10 -262144
-1 -1;
#X obj 195 117 metro 50;
#X obj 347 38 metro 180000;
#X obj 347 60 t b b;
#X obj 358 5 bng 15 250 50 0 empty empty empty 17 7 0 10 -262144 -1
-1;
#X obj 447 78 print;
#X msg 453 50 repeating sound file;
#X obj 464 259 shell;
#X connect 0 0 1 0;
#X connect 0 0 7 0;
#X connect 0 0 10 0;
#X connect 0 1 7 1;
#X connect 1 0 2 0;
#X connect 1 0 5 0;
#X connect 1 0 8 0;
#X connect 3 0 0 0;
#X connect 4 0 12 0;
#X connect 6 0 0 0;
#X connect 11 0 10 0;
#X connect 12 0 1 0;
#X connect 12 0 11 0;
#X connect 13 0 14 0;
#X connect 13 0 17 0;
#X connect 14 0 3 0;
#X connect 14 1 6 0;
#X connect 15 0 13 0;
#X connect 15 0 4 0;
#X connect 17 0 16 0;
